<?xml version="1.0" encoding="UTF-8" standalone="no"?>
<svg
   viewBox="0 0 397.246 53"
   version="1.1"
   id="svg_null"
   width="397.246"
   height="53"
   xmlns:xlink="http://www.w3.org/1999/xlink"
   xmlns="http://www.w3.org/2000/svg"
   xmlns:svg="http://www.w3.org/2000/svg">
  <defs
     id="defs1">
    <linearGradient
       id="linearGradient1">
      <stop
         style="stop-color:#29b657;stop-opacity:1;"
         offset="0"
         id="stop1" />
      <stop
         style="stop-color:#00dc82;stop-opacity:0.99007094;"
         offset="0.80325967"
         id="stop2" />
    </linearGradient>
    <radialGradient
       xlink:href="#linearGradient1"
       id="radialGradient2"
       cx="108.5"
       cy="215.5"
       fx="108.5"
       fy="215.5"
       r="26.5"
       gradientUnits="userSpaceOnUse" />
  </defs>
  <g
     id="root"
     stroke="none"
     stroke-width="1"
     fill="none"
     fill-rule="evenodd"
     transform="translate(-82,-189)">
    <g
       id="Group"
       transform="translate(79,260)"
       style="fill:#03dd84;fill-opacity:1">
      <text
         id="headerText.primary"
         font-family="'Abril Fatface'"
         font-size="50px"
         font-weight="400"
         line-spacing="50"
         letter-spacing="3"
         fill="#03414d"
         data-text-alignment="L"
         font-style="normal"
         x="72.528885"
         y="-64.141846"
         style="fill:#03dd84;fill-opacity:1"><tspan
           x="72.528885"
           y="-19.141848"
           id="tspan1"
           style="fill:#03dd84;fill-opacity:1">Techni Tribe</tspan></text>
    </g>
    <path
       d="m 85.18,189 c -1.751,0 -3.18,1.429 -3.18,3.18 v 46.64 c 0,1.751 1.429,3.18 3.18,3.18 h 45.58 c 0.426,0 0.8,-0.232 0.96,-0.63 0.166,-0.397 0.071,-0.856 -0.231,-1.159 l -7.95,-7.983 c -0.327,-0.327 -0.833,-0.385 -1.226,-0.199 -0.012,0.005 -0.02,-0.004 -0.033,0 -0.683,0.303 -1.4,0.464 -2.153,0.464 -2.923,0 -5.3,-2.377 -5.3,-5.3 0,-2.923 2.377,-5.3 5.3,-5.3 2.923,0 5.3,2.377 5.3,5.3 0,0.75 -0.162,1.478 -0.464,2.153 -0.054,0.116 -0.058,0.24 -0.066,0.365 -0.033,0.356 0.116,0.67 0.397,0.894 l 7.884,7.917 c 0.203,0.203 0.485,0.298 0.762,0.298 0.137,0 0.265,-0.012 0.398,-0.066 0.393,-0.162 0.662,-0.568 0.662,-0.994 v -45.58 c 0,-1.751 -1.424,-3.18 -3.18,-3.18 H 113.8 c -0.282,0 -0.563,0.132 -0.762,0.331 l -11.13,11.13 c -0.315,0.27 -0.422,0.688 -0.298,1.093 0.012,0.042 0.017,0.062 0.033,0.1 0,0.004 0,0.029 0,0.033 0.315,0.687 0.464,1.42 0.464,2.186 0,2.923 -2.377,5.3 -5.3,5.3 -2.923,0 -5.3,-2.377 -5.3,-5.3 0,-2.923 2.377,-5.3 5.3,-5.3 0.753,0 1.474,0.157 2.153,0.464 0.008,0.004 0.025,-0.004 0.033,0 0.39,0.17 0.874,0.12 1.193,-0.199 l 7.983,-8.016 c 0.302,-0.302 0.397,-0.762 0.232,-1.16 C 108.235,189.265 107.866,189 107.44,189 Z m 34.947,9.573 c 2.923,0 5.3,2.377 5.3,5.3 0,2.923 -2.377,5.3 -5.3,5.3 -0.75,0 -1.495,-0.149 -2.186,-0.464 -0.402,-0.182 -0.878,-0.111 -1.193,0.2 l -14.906,14.905 c -0.31,0.31 -0.381,0.791 -0.199,1.193 0.315,0.691 0.464,1.437 0.464,2.186 0,2.923 -2.377,5.3 -5.3,5.3 -2.923,0 -5.3,-2.377 -5.3,-5.3 0,-2.923 2.377,-5.3 5.3,-5.3 0.753,0 1.495,0.15 2.186,0.464 0.402,0.182 0.849,0.112 1.16,-0.199 l 14.939,-14.94 c 0.315,-0.31 0.38,-0.757 0.199,-1.159 -0.315,-0.691 -0.464,-1.432 -0.464,-2.186 0,-2.923 2.377,-5.3 5.3,-5.3 z m -23.32,3.18 c -1.172,0 -2.12,0.948 -2.12,2.12 0,1.172 0.948,2.12 2.12,2.12 1.172,0 2.12,-0.948 2.12,-2.12 0,-1.172 -0.948,-2.12 -2.12,-2.12 z m 23.32,0 c -1.172,0 -2.12,0.948 -2.12,2.12 0,1.172 0.948,2.12 2.12,2.12 1.172,0 2.12,-0.948 2.12,-2.12 0,-1.172 -0.948,-2.12 -2.12,-2.12 z m -23.32,23.32 c -1.172,0 -2.12,0.948 -2.12,2.12 0,1.172 0.948,2.12 2.12,2.12 1.172,0 2.12,-0.948 2.12,-2.12 0,-1.172 -0.948,-2.12 -2.12,-2.12 z m 23.32,0 c -1.172,0 -2.12,0.948 -2.12,2.12 0,1.172 0.948,2.12 2.12,2.12 1.172,0 2.12,-0.948 2.12,-2.12 0,-1.172 -0.948,-2.12 -2.12,-2.12 z"
       id="shape.primary"
       fill="#03414d"
       fill-rule="nonzero"
       style="fill:url(#radialGradient2)" />
  </g>
</svg>
