<?xml version="1.0" encoding="UTF-8" standalone="no"?>
<!-- Generator: Adobe Illustrator 27.5.0, SVG Export Plug-In . SVG Version: 6.00 Build 0)  -->

<svg
   version="1.1"
   id="Layer_1"
   x="0px"
   y="0px"
   viewBox="0 0 286.5416 359.15085"
   xml:space="preserve"
   sodipodi:docname="16027871_2009.i003.004.back to school design concept.svg"
   width="286.5416"
   height="359.15085"
   xmlns:inkscape="http://www.inkscape.org/namespaces/inkscape"
   xmlns:sodipodi="http://sodipodi.sourceforge.net/DTD/sodipodi-0.dtd"
   xmlns="http://www.w3.org/2000/svg"
   xmlns:svg="http://www.w3.org/2000/svg"><defs
   id="defs271" /><sodipodi:namedview
   id="namedview271"
   pagecolor="#ffffff"
   bordercolor="#666666"
   borderopacity="1.0"
   inkscape:showpageshadow="2"
   inkscape:pageopacity="0.0"
   inkscape:pagecheckerboard="0"
   inkscape:deskcolor="#d1d1d1" />


<g
   id="g274"><g
     id="g273"
     transform="translate(-527.52969,-32.893125)"><g
       id="g272"
       style="opacity:0.477218"
       transform="matrix(0.74399425,0,0,0.74399425,187.33819,76.705965)"><ellipse
         style="fill:#b8272b"
         cx="768.83575"
         cy="285.98798"
         rx="72.938004"
         ry="8.6049995"
         id="ellipse185" /><path
         style="fill:#b8272b"
         d="m 842.38372,207.33797 h -15.33 l 2.213,-18.493 h -1.832 l 0.369,-3.212 0.027,-0.233 -0.058,-0.003 -0.795,-2.566 v 0 l -1.27,-4.1 v 0 -0.001 l -1.199,2.826 -0.485,1.142 v 0 l -1.036,2.442 -0.039,-0.002 -0.426,3.708 h -1.061 l -1.132,-6.416 v 0 l -0.03,-0.166 -0.031,-0.175 v 0 l -0.037,-0.213 -0.054,0.012 -1.463,-2.338 v 0 l -2.338,-3.736 -10e-4,-0.001 -0.086,0.929 -0.322,3.469 v 0 l -0.251,2.707 -0.037,0.008 1.024,5.807 -0.945,0.113 v 0 0 l -1.023,0.122 2.128,17.782 h -8.003 c -0.018,-0.11 -0.079,-0.25 -0.219,-0.449 -0.205,-0.294 -1.166,-1.542 -1.341,-1.763 -0.392,-0.495 -0.869,-0.928 -1.351,-1.335 -0.617,-0.521 -1.978,-1.137 -2.656,-1.578 -0.625,-0.449 -1.48,-0.697 -2.416,-0.817 0.047,-0.075 0.079,-0.127 0.079,-0.127 0,0 -16.643,-12.653 -18.417,-16.043 -4.219,-8.063 -4.359,-10.501 -14.396,-21.867 -0.058,-0.157 -0.101,-0.273 -0.101,-0.273 -0.096,-0.04 -0.202,-0.111 -0.312,-0.194 -0.029,-0.033 -0.056,-0.064 -0.086,-0.097 l -0.014,0.019 c -0.509,-0.424 -1.086,-1.175 -1.324,-1.612 -0.262,-0.484 -0.519,-0.962 -0.766,-1.429 0,0.001 0.01,0.002 0.01,0.003 -0.412,-0.776 -0.804,-1.52 -1.168,-2.217 -1.016,-1.965 -1.702,-3.358 -1.702,-3.358 0.429,0.719 3.664,2.229 5.905,1.507 1.344,-0.433 2.291,-1.069 2.171,-4.843 -0.086,-2.718 -0.366,-4.947 -0.814,-6.763 0.042,-0.068 0.103,-0.839 -0.151,-0.883 -0.034,-0.006 -0.069,-0.007 -0.104,-0.012 -0.249,-0.824 -0.537,-1.55 -0.863,-2.186 0.873,-0.363 1.754,-0.85 2.627,-1.501 0,0 -0.433,-1.127 -1.369,-2.403 0,0 0,0 0,-10e-4 -1.536,-2.745 -4.07,-4.224 -5.653,-4.727 -8.053,-2.559 -14.838,3.261 -16.183,7.29 -1.346,4.029 -1.875,5.512 -6.626,6.936 -4.751,1.425 -4.933,4.229 -7.023,6.369 -2.089,2.139 -5.161,1.073 -5.161,1.073 -0.576,5.864 2.698,6.82 3.399,7.84 1.138,1.654 0.958,3.415 2.924,4.414 0.066,0.033 0.135,0.075 0.203,0.114 -0.964,0.596 -1.906,1.269 -2.801,2.04 -0.76,0.655 -1.554,1.441 -2.362,2.334 h -12.356 v -2.335 h -1.745 v 0 h -3.629 v 39.464 h -9.078 -0.872 -0.873 v 4.624 h 10.823 v 74.63 h 3.629 v 0 h 1.745 v -45.481 h 7.388 v 45.481 h 1.745 v 0 h 2.879 v -45.481 h 6.832 v 45.481 h 1.745 v 0 h 3.63 v -45.481 h 2.882 v 45.481 h 1.745 v 0 h 3.63 v -45.481 h 3.084 v 45.481 h 1.745 v 0 h 2.879 v -45.481 h 11.098 c 0.482,0.968 0.535,1.908 0.535,2.712 0,2.876 0.396,31.013 0.396,31.013 0,0 -1.542,4.189 -0.396,8.629 0.137,0.53 0.581,0.972 1.247,1.341 v 1.785 h 4.502 v -0.551 c 3.703,0.518 8.498,0.518 12.31,0.356 v 0.195 h 1.745 v 0 h 2.879 v -0.502 c 0.941,-0.093 1.567,-0.184 1.724,-0.248 0.325,-0.134 0.826,-0.375 1.293,-0.748 2.788,-0.15 4.836,-0.373 5.141,-0.498 1.063,-0.438 4.002,-2.001 1.501,-5.69 -2.501,-3.689 -5.127,-5.315 -5.127,-5.315 0,0 1.382,-40.146 -1.994,-49.025 -0.409,-1.076 -1.297,-2.189 -2.536,-3.314 v -9.289 h 23.548 v 74.63 h 1.745 v 0 h 2.88 v -74.63 h 21.271 v -0.872 0 -3.754 z m -36.973,0 c 0,0 0,0 0,0 h -3.734 c 0,0 0,0 0,0 z m -9.269,0 h -8.32 -9.914 c 0,0 0,0 10e-4,0 h 9.913 10e-4 v 0 h 8.319 c -10e-4,0 -10e-4,0 0,0 z m -65.69,26.231 v -2.999 c 2.679,1.197 5.946,2.217 9.89,2.999 z m 39.805,-42.394 v 0 0 c 0,0.001 0,0 0,0 z m 0.977,1.835 c 0,0.007 0.01,0.013 0.012,0.02 -0.438,-0.31 -0.875,-0.615 -1.309,-0.913 0.01,-0.024 0.017,-0.047 0.025,-0.071 z m 6.191,14.328 c 10e-4,0 10e-4,0 0,0 h -12.364 c -0.719,-0.265 -1.408,-0.515 -2.063,-0.75 0.209,-0.058 0.418,-0.115 0.628,-0.174 l 1.685,-0.261 c -0.024,-0.156 -0.042,-0.326 -0.057,-0.503 0.423,0.09 0.883,0.21 1.38,0.369 3.938,1.254 8.391,2.123 8.179,0.069 0.345,0.242 0.699,0.468 1.05,0.662 h -0.775 v 0.588 z m -8.912,-11.416 c 0.36,0.266 0.722,0.531 1.086,0.793 -0.506,0.105 -1.019,0.222 -1.527,0.347 0.15,-0.385 0.297,-0.767 0.441,-1.14 z m 10.143,9.368 c 0.425,0.372 0.834,0.751 1.208,1.13 0.128,0.13 0.259,0.235 0.391,0.33 h -1.525 c 0.054,-0.098 0.104,-0.204 0.144,-0.33 0.111,-0.352 0.01,-0.736 -0.218,-1.13 z m 4.543,0.964 c 0.055,-0.226 0.01,-0.518 -0.092,-0.845 1.194,0.609 2.193,1.043 2.957,1.34 h -3.195 c 0.17,-0.151 0.288,-0.323 0.33,-0.495 z m 4.012,0.389 c -0.052,-0.059 -0.105,-0.119 -0.163,-0.184 -0.023,-0.026 -0.048,-0.054 -0.072,-0.081 -0.531,-0.599 -1.251,-1.403 -2,-2.214 2.343,1.014 5.039,1.904 8.117,2.586 h -5.789 c -0.03,-0.035 -0.06,-0.07 -0.093,-0.107 z m -67.395,5.319 c -0.23,3.541 -0.099,7.493 1.128,10.227 0.922,2.053 2.498,4.007 4.884,5.75 v 5.63 h -7.388 v -21.607 z m 56.814,0 h 11.686 v 5.926 c -3.356,-2.07 -7.502,-4.096 -11.686,-5.926 z m 41.337,-4.624 v 0 0 h 10e-4 z m -1.038,0 h -8.95 c 0,0 0,0 0,0 h 8.949 z m -12.518,-0.588 h -2.64 c -0.045,-0.381 -0.245,-0.769 -0.482,-0.951 -0.746,-0.573 -1.631,-0.234 -2.185,-1.03 -0.543,-0.781 0.963,-0.383 1.34,-0.272 0.197,0.057 2.437,1.356 3.967,2.253 z"
         id="path185" /><polygon
         style="fill:#ff94a3"
         points="1280.987,149.88 1280.987,145.689 1285.178,145.689 1285.178,143.331 1280.987,143.331 1280.987,139.139 1278.628,139.139 1278.628,143.331 1274.437,143.331 1274.437,145.689 1278.628,145.689 1278.628,149.88 "
         id="polygon266"
         transform="translate(-455.07328,3.0439684)" /><g
         id="g268"
         transform="translate(-455.07328,3.0439684)">
		<g
   id="g267">
			<path
   style="fill:#ff94a3"
   d="m 1246.864,98.937 c 0,3.765 -4.736,4.873 -4.736,6.34 v 0.581 h -4.736 v -1.385 c 0,-2.021 3.601,-3.185 3.601,-5.427 0,-1.025 -0.666,-1.938 -1.827,-1.938 -1.496,0 -1.801,1.163 -1.801,2.326 0,0.249 0,0.499 0.027,0.748 h -5.094 c -0.028,-0.361 -0.084,-0.693 -0.084,-1.053 0,-3.599 3.213,-5.842 7.56,-5.842 4.237,0 7.09,2.216 7.09,5.65 z m -4.32,13.733 h -5.482 v -5.122 h 5.482 z"
   id="path267" />
		</g>
	</g></g><ellipse
       style="fill:#b8272b;stroke-width:0.905146"
       cx="691.02875"
       cy="373.39297"
       rx="117.97766"
       ry="18.650999"
       id="ellipse186" /><g
       id="g271"
       style="opacity:0.354916"><ellipse
         style="fill:#b8272b"
         cx="600.46869"
         cy="257.98798"
         rx="72.939003"
         ry="8.6049995"
         id="ellipse183" /><path
         style="fill:#b8272b"
         d="m 675.01872,178.95997 h -22.039 v -2.022 -1.495 h -0.485 l 5.627,-26.002 h -32.502 -4.568 -2.846 l -1.286,5.944 c -0.552,-0.667 -1.046,-1.296 -1.456,-1.867 -4.671,-6.515 -9.342,-15.807 -13.893,-19.045 -1.102,-1.238 -1.99,-3.117 -2.629,-4.806 -0.658,-2.027 -1.167,-3.726 -1.167,-3.726 1.819,1.734 6.977,2.605 9.521,-0.029 1.766,-1.828 -0.481,-7.579 -2.699,-11.902 0.051,-0.03 0.105,-0.056 0.15,-0.09 0.267,-0.199 0.274,-0.513 0.178,-0.805 -0.062,-0.191 -0.166,-0.325 -0.296,-0.418 -0.226,-0.162 -0.532,-0.199 -0.837,-0.193 -0.319,-0.578 -0.627,-1.115 -0.91,-1.584 0.287,-0.232 0.556,-0.484 0.786,-0.778 2.392,-3.065 0.564,-7.309 0.564,-7.309 -0.197,0.625 -2.682,1.139 -4.331,0.637 -1.649,-0.502 -5.556,-4.181 -10.272,-3.77 -4.716,0.411 -4.457,4.931 -4.457,4.931 -1.321,-0.241 -2.336,0.149 -3.831,2.53 -1.495,2.381 0.46,5.859 1.916,7.768 1.454,1.907 4.976,6.369 5.546,6.304 0.181,0.656 0.302,1.362 0.333,2.14 0.151,3.761 -1.518,6.734 -2.926,8.557 0,-0.007 -0.02,-0.025 -0.02,-0.025 0,0 -12.166,1.017 -19.972,7.744 -0.758,0.653 -1.548,1.436 -2.352,2.325 h -12.308 v -2.325 h -1.738 v 0 h -3.615 v 39.311 h -9.043 -0.869 -0.869 v 4.606 h 10.781 v 74.339 h 3.615 v 0 h 1.738 v -45.304 h 7.359 v 45.304 h 1.738 v 0 h 2.868 v -45.304 h 6.806 v 45.304 h 1.738 v 0 h 3.616 v -45.304 h 2.871 v 45.304 h 1.738 v 0 h 3.616 v -45.304 h 3.073 v 45.304 h 1.738 v 0 h 2.868 v -45.304 h 11.054 c 0.481,0.964 0.533,1.901 0.533,2.702 0,2.865 0.395,30.892 0.395,30.892 0,0 -1.536,4.173 -0.395,8.595 0.136,0.528 0.579,0.968 1.242,1.336 v 1.778 h 4.485 v -0.548 c 3.688,0.516 8.464,0.516 12.262,0.355 v 0.194 h 1.738 v 0 h 2.868 v -0.5 c 0.937,-0.093 1.561,-0.183 1.717,-0.247 0.324,-0.133 0.823,-0.373 1.288,-0.745 2.777,-0.149 4.817,-0.371 5.121,-0.496 1.059,-0.436 3.986,-1.993 1.495,-5.668 -2.491,-3.675 -5.107,-5.294 -5.107,-5.294 0,0 1.377,-39.99 -1.987,-48.834 -0.408,-1.072 -1.292,-2.18 -2.526,-3.3 v -9.253 h 23.456 v 74.339 h 1.738 v 0 h 2.868 v -74.339 h 21.188 v -0.869 0 -3.739 z m -111.496,26.128 v -2.988 c 2.669,1.193 5.923,2.209 9.851,2.988 z m 39.287,-41.168 c 0.024,-0.068 0.046,-0.129 0.068,-0.193 l 10.369,7.859 0.233,-0.308 -0.901,4.164 h -0.747 -1.102 c 0,-0.001 0,-0.001 0,-0.001 0.163,-1.466 -2.065,-2.237 -3.631,-2.597 1.512,0.2 3.684,0.244 4.005,-1.078 0.498,-2.055 -1.183,-2.803 -3.924,-3.675 -1.239,-0.394 -3.775,0.039 -6.183,0.632 0.141,-0.362 0.279,-0.721 0.415,-1.072 0.394,-1.024 0.76,-1.988 1.064,-2.813 0.122,-0.33 0.234,-0.637 0.334,-0.918 z m 0.363,-1.06 z m -5.174,16.1 c -0.714,-0.263 -1.399,-0.512 -2.051,-0.745 0.21,-0.058 0.422,-0.118 0.634,-0.177 l 1.484,-0.23 v 1.152 z m -45.071,4.606 c -0.229,3.527 -0.099,7.464 1.124,10.187 0.918,2.045 2.488,3.991 4.865,5.728 v 5.608 h -7.359 v -21.523 z m 56.593,0 h 11.64 v 5.903 c -3.343,-2.062 -7.472,-4.08 -11.64,-5.903 z"
         id="path186" /><polygon
         style="fill:#ff94a3"
         points="968.081,138.377 968.081,142.568 970.44,142.568 970.44,138.377 974.631,138.377 974.631,136.019 970.44,136.019 970.44,131.827 968.081,131.827 968.081,136.019 963.89,136.019 963.89,138.377 "
         id="polygon265"
         transform="translate(-423.07328,-24.956032)" /><polygon
         style="fill:#ff94a3"
         points="1022.363,77.443 1022.363,81.635 1024.722,81.635 1024.722,77.443 1028.913,77.443 1028.913,75.085 1024.722,75.085 1024.722,70.894 1022.363,70.894 1022.363,75.085 1018.172,75.085 1018.172,77.443 "
         id="polygon267"
         transform="translate(-423.07328,-24.956032)" /><g
         id="g270"
         transform="translate(-423.07328,-24.956032)">
		<path
   style="fill:#ff94a3"
   d="m 1068.78,108.658 h -3.735 v -3.506 h 3.735 z"
   id="path268" />
		<path
   style="fill:#ff94a3"
   d="m 1074.648,108.658 h -3.735 v -3.506 h 3.735 z"
   id="path269" />
		<path
   style="fill:#ff94a3"
   d="m 1080.517,108.658 h -3.735 v -3.506 h 3.735 z"
   id="path270" />
	</g></g><g
       id="g236"
       transform="translate(-435.07328,9.0439684)">
		<rect
   x="1037.311"
   y="283.547"
   style="fill:#293d6d"
   width="88.917999"
   height="9.9770002"
   id="rect186" />
		<g
   id="g188">
			<g
   id="g187">
				<rect
   x="1040.678"
   y="292.21899"
   style="fill:#251631"
   width="85.550003"
   height="2.6099999"
   id="rect187" />
			</g>
		</g>
		<rect
   x="1147.813"
   y="247.22"
   style="fill:#293d6d"
   width="5.612"
   height="115.642"
   id="rect188" />
		<g
   id="g190">
			<g
   id="g189">
				<rect
   x="1146.5081"
   y="249.922"
   style="fill:#251631"
   width="2.6099999"
   height="112.941"
   id="rect189" />
			</g>
		</g>
		<path
   style="fill:#fca694"
   d="m 1111.388,164.691 c 0,0 2.531,10.681 6.872,13.93 0,0 -4.589,11.128 -15.161,8.47 -10.572,-2.657 -11.861,-10.4 -11.861,-10.4 0,0 7.565,-6.232 7.178,-15.857 -0.388,-9.624 -9.634,-12.248 -7.747,-20.922 1.887,-8.674 24.063,-4.161 27.105,0.211 3.042,4.372 11.734,20.568 7.912,24.524 -3.822,3.956 -11.566,2.648 -14.298,0.044 z"
   id="path190" />
		<path
   style="fill:#e96362"
   d="m 1105.67,161.654 c 2.291,1.529 5.718,3.037 5.718,3.037 0,0 0.922,3.084 2.055,6.523 -5.355,-3.349 -7.773,-9.56 -7.773,-9.56 z"
   id="path191" />
		<path
   style="fill:#251631"
   d="m 1092.462,132.69 c 0,0 -0.389,-6.788 6.693,-7.406 7.082,-0.618 12.95,4.906 15.426,5.661 2.477,0.754 6.209,-0.018 6.504,-0.957 0,0 2.746,6.374 -0.846,10.977 -3.592,4.603 -12.289,3.954 -17.427,1.093 0,0 -0.124,6.634 -0.048,8.151 0.076,1.517 -3.229,-0.406 -4.091,-2.021 -0.861,-1.615 -2.388,-2.516 -3.344,-1.617 -0.955,0.9 0.473,3.65 2.529,5.283 2.056,1.632 0.905,5.651 0.061,5.769 -0.844,0.118 -6.147,-6.6 -8.333,-9.467 -2.186,-2.868 -5.121,-8.091 -2.877,-11.666 2.245,-3.576 3.77,-4.163 5.753,-3.8 z"
   id="path192" />
		<path
   style="fill:#e96362"
   d="m 1118.856,151.631 c 0,0 3.107,4.38 3.336,5.207 0.229,0.827 -1.65,0.89 -2.828,0.775 0,0 1.808,-0.593 1.625,-1.081 -0.182,-0.489 -2.133,-4.901 -2.133,-4.901 z"
   id="path193" />
		<path
   style="fill:#251631"
   d="m 1121.683,144.802 c -0.455,-0.326 -1.123,-0.317 -1.719,-0.264 -0.694,0.061 -1.542,0.328 -1.514,1.17 0,0.087 0.015,0.173 0.033,0.257 0.329,1.587 2.368,1.424 3.376,0.674 0.401,-0.298 0.411,-0.77 0.268,-1.21 -0.093,-0.286 -0.249,-0.487 -0.444,-0.627 z"
   id="path194" />
		<path
   style="fill:#251631"
   d="m 1108.783,148.144 c 0.392,-0.422 1.007,-0.722 1.463,-1.006 1.186,-0.739 3.637,-2.194 4.685,-0.502 0.248,0.4 0.64,1.291 0.268,1.714 -0.333,0.381 -1.296,0.221 -1.743,0.231 -1.328,0.03 -2.403,0.574 -3.566,1.229 -0.573,0.323 -1.285,0.711 -1.521,-0.204 -0.091,-0.354 -0.01,-0.767 0.153,-1.093 0.066,-0.134 0.156,-0.256 0.261,-0.369 z"
   id="path195" />
		<path
   style="fill:#ffffff"
   d="m 1114.31,157.173 c 0.71,2.495 3.323,6.82 6.4,4.419 0.685,-0.534 0.766,-1.348 0.824,-2.161 0,-0.071 0.01,-0.143 0.015,-0.214 -0.658,0.037 -1.858,0.287 -2.548,0.171 -10e-4,-0.001 -2.479,-0.845 -4.691,-2.215 z"
   id="path196" />
		<path
   style="fill:#251631"
   d="m 1113.703,152.553 c 0.421,0.663 1.127,0.97 1.577,0.685 0.449,-0.285 0.472,-1.055 0.051,-1.718 -0.422,-0.663 -1.128,-0.97 -1.577,-0.685 -0.45,0.285 -0.473,1.054 -0.051,1.718 z"
   id="path197" />
		<path
   style="fill:#251631"
   d="m 1120.059,150.41 c 0.35,0.704 1.02,1.083 1.497,0.846 0.477,-0.237 0.58,-0.999 0.23,-1.704 -0.35,-0.704 -1.02,-1.083 -1.497,-0.846 -0.476,0.237 -0.579,1 -0.23,1.704 z"
   id="path198" />
		<rect
   x="1033.944"
   y="185.27699"
   style="fill:#293d6d"
   width="6.7340002"
   height="177.586"
   id="rect198" />
		<rect
   x="1083.828"
   y="185.27699"
   style="fill:#293d6d"
   width="6.7340002"
   height="177.586"
   id="rect199" />
		<rect
   x="1071.4771"
   y="288.28601"
   style="fill:#293d6d"
   width="6.7340002"
   height="74.575996"
   id="rect200" />
		<rect
   x="1121.36"
   y="288.28601"
   style="fill:#293d6d"
   width="6.7340002"
   height="74.575996"
   id="rect201" />
		<rect
   x="1037.311"
   y="188.76801"
   style="fill:#293d6d"
   width="51.006001"
   height="58.862999"
   id="rect202" />
		<path
   style="fill:#251631"
   d="m 1129.711,343.414 c 0,0 -2.307,6.267 -0.593,12.908 1.715,6.641 34.919,4.209 36.509,3.554 1.59,-0.655 5.986,-2.993 2.245,-8.511 -3.741,-5.518 -7.67,-7.95 -7.67,-7.95 h -30.491 z"
   id="path202" />
		<path
   style="fill:#251631"
   d="m 1120.087,345.278 c 0,0 -2.307,6.267 -0.593,12.908 1.715,6.641 34.918,4.209 36.509,3.554 1.59,-0.655 5.986,-2.993 2.245,-8.511 -3.741,-5.518 -7.67,-7.95 -7.67,-7.95 h -30.491 z"
   id="path203" />
		<path
   style="fill:#fbaf37"
   d="m 1098.668,239.775 c 0,0 53.5,17.023 58.551,30.304 5.051,13.282 2.984,73.335 2.984,73.335 h -20.914 c 0,0 -0.215,-65.852 -8.259,-70.716 -8.044,-4.863 -60.172,-21.886 -61.419,-30.304 -1.247,-8.418 29.057,-2.619 29.057,-2.619 z"
   id="path204" />
		<path
   style="fill:#fcce7c"
   d="m 1045.729,239.027 c 0,0 -4.115,18.332 0,27.498 4.115,9.166 16.898,17.023 44.833,19.081 27.935,2.058 28.932,8.979 28.932,13.281 0,4.302 0.593,46.392 0.593,46.392 h 30.491 c 0,0 0.655,-62.292 -3.273,-70.336 -3.928,-8.044 -52.128,-27.311 -60.11,-31.427 0,0 -35.48,-2.432 -41.466,-4.489 z"
   id="path205" />
		<path
   style="fill:#29b1ff"
   d="m 1168.069,236.781 c 0,0 -23.009,-20.764 -30.117,-30.678 -7.109,-9.914 -14.217,-24.131 -21.138,-28.808 0,0 -5.612,6.641 -10.85,5.705 -5.238,-0.935 -11.972,-9.353 -11.972,-9.353 0,0 -18.27,1.528 -29.993,11.629 -11.723,10.101 -28.681,40.468 -19.641,62.355 0,0 22.883,7.482 66.469,-5.051 0,0 7.233,-17.958 8.667,-22.448 0,0 27.331,21.512 31.125,21.512 3.794,0.001 17.45,-4.863 17.45,-4.863 z"
   id="path206" />
		<path
   style="fill:#3777df"
   d="m 1101.843,238.898 c -4.782,-0.877 -9.364,-2.651 -13.605,-5.074 -0.093,-0.016 -0.188,-0.034 -0.28,-0.05 -1.636,-0.281 -2.691,-1.107 -3.263,-2.173 -2.282,-1.566 -4.445,-3.311 -6.459,-5.194 -3.78,-3.535 -6.392,-7.065 -8.292,-11.819 -0.55,-1.374 -1.235,-5.097 -2.563,-5.887 -1.383,-0.822 -4.864,2.702 -6.478,3.856 -5.464,3.907 -11.002,5.873 -16.433,4.983 -3.102,10.101 -3.929,20.851 -0.112,30.092 0,0 21.321,6.964 61.992,-3.817 -1.574,-1.648 -2.82,-3.444 -4.507,-4.917 z"
   id="path207" />
		<path
   style="fill:#3777df"
   d="m 1138.648,227.682 c -6.413,-5.451 -12.385,-11.386 -17.894,-17.751 -0.953,-1.102 -1.826,-2.262 -2.665,-3.447 -0.467,4.038 -1.497,7.89 -3.673,11.048 -5.76,8.363 -15.051,4.66 -18.9,-3.09 -2.239,-4.508 -3.339,-9.479 -5.436,-14.037 -0.092,-0.201 -0.302,-0.526 -0.526,-0.877 -1.011,1.516 -2.218,3.349 -2.291,3.474 -1.07,1.831 -2.064,3.735 -3.367,5.419 -5.294,6.839 -13.753,11.039 -16.228,19.9 -1.906,6.824 -0.496,14.427 0.963,21.448 10.668,-0.37 24.773,-2.177 42.197,-7.187 0,0 7.233,-17.958 8.667,-22.448 0,0 27.331,21.512 31.125,21.512 0.717,0 1.787,-0.174 3.05,-0.456 -5.399,-4.338 -10.346,-9.534 -15.022,-13.508 z"
   id="path208" />
		<path
   style="fill:#fca694"
   d="m 1107.741,231.45 c 0,0 13.655,-4.77 17.771,-3.461 4.115,1.309 6.641,2.432 5.892,5.518 -0.748,3.087 -8.231,1.216 -8.231,1.216 0,0 8.044,0.936 7.67,4.303 -0.374,3.367 -8.605,0 -8.605,0 0,0 8.512,0.935 8.324,4.209 -0.187,3.274 -7.404,1.902 -13.375,0 -5.971,-1.902 -11.411,-1.061 -11.411,-1.061 z"
   id="path209" />
		<path
   style="fill:#29b1ff"
   d="m 1093.243,202.736 c 0,0 0.748,-13.807 -15.713,-19.998 0,0 -11.291,2.32 -23.383,29.009 -12.092,26.69 2.931,32.891 8.667,34.949 5.737,2.058 48.013,-4.115 48.013,-4.115 0,0 -0.686,-7.795 0.998,-13.157 0,0 -27.872,-4.365 -27.374,-8.106 0.499,-3.742 0.748,-9.603 8.792,-18.582 z"
   id="path210" />
		<rect
   x="1189.955"
   y="247.22"
   style="fill:#293d6d"
   width="5.612"
   height="115.642"
   id="rect210" />
		<rect
   x="1096.481"
   y="247.22"
   style="fill:#293d6d"
   width="5.612"
   height="115.642"
   id="rect211" />
		<rect
   x="1054.339"
   y="247.22"
   style="fill:#293d6d"
   width="5.612"
   height="115.642"
   id="rect212" />
		<g
   id="g213">
			<g
   id="g212">
				<path
   style="fill:#251631"
   d="m 1151.883,345.285 -2.61,-0.012 c 0.122,-25.667 -0.603,-65.403 -3.094,-69.673 -2.472,-4.231 -28.042,-16.964 -44.624,-24.489 l 1.077,-2.377 c 4.301,1.952 42.118,19.247 45.8,25.551 3.651,6.254 3.481,64.392 3.451,71 z"
   id="path212" />
			</g>
		</g>
		<g
   id="g215">
			<g
   id="g214">
				<rect
   x="1039.374"
   y="185.276"
   style="fill:#251631"
   width="2.6099999"
   height="177.586"
   id="rect213" />
			</g>
		</g>
		<g
   id="g217">
			<g
   id="g216">
				<rect
   x="1053.035"
   y="249.922"
   style="fill:#251631"
   width="2.6099999"
   height="112.941"
   id="rect215" />
			</g>
		</g>
		<g
   id="g219">
			<g
   id="g218">
				<rect
   x="1095.176"
   y="249.922"
   style="fill:#251631"
   width="2.6099999"
   height="112.941"
   id="rect217" />
			</g>
		</g>
		<g
   id="g221">
			<g
   id="g220">
				<rect
   x="1188.65"
   y="249.922"
   style="fill:#251631"
   width="2.6099999"
   height="112.941"
   id="rect219" />
			</g>
		</g>
		<g
   id="g223">
			<g
   id="g222">
				<rect
   x="1070.171"
   y="292.15201"
   style="fill:#251631"
   width="2.6099999"
   height="70.710999"
   id="rect221" />
			</g>
		</g>
		<g
   id="g225">
			<g
   id="g224">
				<rect
   x="1082.522"
   y="292.15201"
   style="fill:#251631"
   width="2.6099999"
   height="70.710999"
   id="rect223" />
			</g>
		</g>
		<g
   id="g227">
			<g
   id="g226">
				<path
   style="fill:#251631"
   d="m 1109.519,242.936 c -0.53,-3.422 0.348,-9.654 0.792,-12.4 -7.439,-1.031 -25.608,-4.027 -27.105,-8.831 -1.619,-5.2 6.526,-16.673 7.461,-17.964 l 2.114,1.529 c -3.232,4.47 -8.013,12.673 -7.084,15.658 0.732,2.35 14.188,5.62 26.296,7.201 l 1.363,0.177 -0.248,1.352 c -0.015,0.089 -1.621,8.932 -1.009,12.878 z"
   id="path225" />
			</g>
		</g>
		<g
   id="g229">
			<g
   id="g228">
				
					<rect
   x="1126.1479"
   y="216.179"
   transform="matrix(0.6041,-0.7969,0.7969,0.6041,266.1608,988.0548)"
   style="fill:#251631"
   width="2.6099999"
   height="19.972"
   id="rect227" />
			</g>
		</g>
		<g
   id="g233">
			<rect
   x="1111.825"
   y="239.02901"
   style="fill:#251631"
   width="82.464996"
   height="5.3909998"
   id="rect229" />
			<rect
   x="1111.825"
   y="239.02901"
   style="fill:#251631"
   width="25.351999"
   height="5.3909998"
   id="rect230" />
			<polygon
   style="fill:#251631"
   points="1153.203,199.982 1142.07,199.982 1133.619,239.029 1153.203,239.029 "
   id="polygon230" />
			<polygon
   style="fill:#251631"
   points="1193.562,239.029 1137.893,239.029 1146.344,199.982 1202.012,199.982 "
   id="polygon231" />
			<path
   style="fill:#ffffff"
   d="m 1172.651,217.32 c 0,1.49 -1.208,2.698 -2.698,2.698 -1.49,0 -2.698,-1.208 -2.698,-2.698 0,-1.49 1.208,-2.699 2.698,-2.699 1.49,0 2.698,1.208 2.698,2.699 z"
   id="path231" />
			<g
   id="g232">
				<polygon
   style="fill:#8f9ab3"
   points="1194.29,241.273 1134.742,241.273 1134.742,245.209 1132.497,245.209 1132.497,239.029 1194.29,239.029 "
   id="polygon232" />
			</g>
		</g>
		
			<rect
   x="1120.417"
   y="142.952"
   transform="rotate(-90,1123.2232,247.11585)"
   style="fill:#293d6d"
   width="5.612"
   height="208.327"
   id="rect233" />
		<g
   id="g235">
			<g
   id="g234">
				<polygon
   style="fill:#251631"
   points="1020.365,248.617 1227.386,248.617 1227.386,251.227 1017.755,251.227 1017.755,244.31 1020.365,244.31 "
   id="polygon233" />
			</g>
		</g>
	</g><g
       id="g257"
       transform="matrix(0.58327954,0,0,0.58327954,11.02292,32.893125)">
		<rect
   x="1164.816"
   style="fill:#251631"
   width="3.878"
   height="71.167"
   id="rect236"
   y="0" />
		<g
   id="g256">
			<g
   id="g253">
				
					<circle
   transform="matrix(0.1602,-0.9871,0.9871,0.1602,891.505,1227.5114)"
   style="fill:#60b654"
   cx="1167.136"
   cy="89.835999"
   id="ellipse236"
   r="30.304001" />
				
					<circle
   transform="matrix(0.0709,-0.9975,0.9975,0.0709,994.7883,1247.6676)"
   style="fill:#ede9e8"
   cx="1167.136"
   cy="89.835999"
   id="ellipse237"
   r="22.128" />
				<path
   style="fill:#bebebe"
   d="m 1177.502,98.259 c -13.752,0 -24.473,-9.537 -27.837,-21.995 -2.916,3.748 -4.657,8.456 -4.657,13.572 0,12.221 9.907,22.128 22.128,22.128 10.089,0 18.594,-6.754 21.258,-15.985 -3.445,1.463 -7.149,2.28 -10.892,2.28 z"
   id="path237" />
				<g
   id="g251">
					<g
   id="g239">
						<path
   style="fill:#251631"
   d="m 1168.914,73.205 c 0,0.982 -0.796,1.778 -1.778,1.778 -0.982,0 -1.778,-0.796 -1.778,-1.778 0,-0.982 0.796,-1.778 1.778,-1.778 0.982,0 1.778,0.796 1.778,1.778 z"
   id="path238" />
						<path
   style="fill:#251631"
   d="m 1168.914,106.905 c 0,0.982 -0.796,1.778 -1.778,1.778 -0.982,0 -1.778,-0.796 -1.778,-1.778 0,-0.982 0.796,-1.778 1.778,-1.778 0.982,0 1.778,0.796 1.778,1.778 z"
   id="path239" />
					</g>
					<g
   id="g250">
						<g
   id="g241">
							<path
   style="fill:#251631"
   d="m 1150.286,88.277 c 0.982,0 1.778,0.796 1.778,1.778 0,0.982 -0.796,1.778 -1.778,1.778 -0.982,0 -1.778,-0.796 -1.778,-1.778 0,-0.982 0.796,-1.778 1.778,-1.778 z"
   id="path240" />
							<path
   style="fill:#251631"
   d="m 1183.986,88.277 c 0.982,0 1.778,0.796 1.778,1.778 0,0.982 -0.796,1.778 -1.778,1.778 -0.982,0 -1.778,-0.796 -1.778,-1.778 0,-0.982 0.796,-1.778 1.778,-1.778 z"
   id="path241" />
						</g>
						<g
   id="g243">
							<path
   style="fill:#251631"
   d="m 1153.42,80.107 c 0.851,0.49 1.144,1.577 0.654,2.428 -0.49,0.851 -1.577,1.144 -2.428,0.654 -0.851,-0.49 -1.144,-1.577 -0.654,-2.428 0.49,-0.851 1.577,-1.144 2.428,-0.654 z"
   id="path242" />
							<path
   style="fill:#251631"
   d="m 1182.626,96.921 c 0.851,0.49 1.144,1.577 0.654,2.428 -0.49,0.851 -1.577,1.144 -2.428,0.654 -0.851,-0.49 -1.144,-1.577 -0.654,-2.428 0.49,-0.851 1.577,-1.144 2.428,-0.654 z"
   id="path243" />
						</g>
						<g
   id="g245">
							<path
   style="fill:#251631"
   d="m 1157.188,103.771 c 0.49,-0.851 1.577,-1.144 2.428,-0.654 0.851,0.49 1.144,1.577 0.654,2.428 -0.49,0.851 -1.577,1.144 -2.428,0.654 -0.851,-0.49 -1.144,-1.577 -0.654,-2.428 z"
   id="path244" />
							<path
   style="fill:#251631"
   d="m 1174.002,74.565 c 0.49,-0.851 1.577,-1.144 2.428,-0.654 0.851,0.49 1.144,1.577 0.654,2.428 -0.49,0.851 -1.577,1.144 -2.428,0.654 -0.851,-0.49 -1.144,-1.577 -0.654,-2.428 z"
   id="path245" />
						</g>
						<g
   id="g247">
							<path
   style="fill:#251631"
   d="m 1180.969,80.271 c -0.857,0.48 -1.162,1.563 -0.683,2.42 0.48,0.857 1.563,1.162 2.42,0.683 0.857,-0.48 1.162,-1.563 0.683,-2.42 -0.479,-0.857 -1.563,-1.163 -2.42,-0.683 z"
   id="path246" />
							<path
   style="fill:#251631"
   d="m 1151.565,96.736 c -0.857,0.48 -1.162,1.563 -0.683,2.42 0.48,0.857 1.563,1.162 2.42,0.683 0.857,-0.48 1.162,-1.563 0.683,-2.42 -0.48,-0.857 -1.563,-1.163 -2.42,-0.683 z"
   id="path247" />
						</g>
						<g
   id="g249">
							<path
   style="fill:#251631"
   d="m 1176.92,103.888 c -0.48,-0.857 -1.563,-1.162 -2.42,-0.683 -0.857,0.48 -1.162,1.563 -0.683,2.42 0.48,0.857 1.563,1.163 2.42,0.683 0.857,-0.48 1.162,-1.563 0.683,-2.42 z"
   id="path248" />
							<path
   style="fill:#251631"
   d="m 1160.455,74.484 c -0.48,-0.857 -1.563,-1.162 -2.42,-0.683 -0.857,0.48 -1.162,1.563 -0.683,2.42 0.48,0.857 1.563,1.162 2.42,0.683 0.857,-0.48 1.163,-1.563 0.683,-2.42 z"
   id="path249" />
						</g>
					</g>
				</g>
				<path
   style="fill:#251631"
   d="m 1169.423,90.055 c 0,1.263 -1.024,2.287 -2.287,2.287 -1.263,0 -2.287,-1.024 -2.287,-2.287 0,-1.263 1.024,-2.287 2.287,-2.287 1.263,0 2.287,1.024 2.287,2.287 z"
   id="path251" />
				<path
   style="fill:#251631"
   d="m 1175.103,84.389 c -0.166,-0.317 -0.358,-0.614 -0.55,-0.912 l -7.853,4.989 -5.685,-5.039 c -0.235,0.428 -0.495,0.835 -0.771,1.202 -0.129,0.171 -0.258,0.329 -0.393,0.475 l 6.652,5.697 9.034,-5.525 c -0.144,-0.297 -0.281,-0.595 -0.434,-0.887 z"
   id="path252" />
				<polygon
   style="fill:#251631"
   points="1162.644,83.018 1157.125,81.648 1159.163,86.871 "
   id="polygon252" />
				<polygon
   style="fill:#251631"
   points="1178.078,82.801 1173.175,82.391 1175.589,86.781 "
   id="polygon253" />
			</g>
			<g
   id="g255">
				<g
   id="g254">
					<path
   style="fill:#251631"
   d="m 1167.094,112.379 c -7.957,10e-4 -15.272,-3.784 -19.167,-10.247 -9.545,-15.842 2.917,-28.26 3.044,-28.384 l 0.946,0.971 c -0.486,0.475 -11.811,11.806 -2.829,26.713 4.442,7.373 13.676,11.018 22.972,9.074 9.018,-1.887 15.114,-8.472 16.307,-17.614 l 1.345,0.176 c -1.272,9.74 -7.766,16.754 -17.374,18.765 -1.759,0.368 -3.516,0.546 -5.244,0.546 z"
   id="path253" />
				</g>
			</g>
		</g>
	</g></g></g>
</svg>
