<?xml version="1.0" encoding="UTF-8" standalone="no"?>
<svg
   viewBox="0 0 397.246 53"
   version="1.1"
   id="svg_null"
   sodipodi:docname="newlogo.svg"
   width="397.246"
   height="53"
   inkscape:version="1.3.2 (091e20e, 2023-11-25, custom)"
   xmlns:inkscape="http://www.inkscape.org/namespaces/inkscape"
   xmlns:sodipodi="http://sodipodi.sourceforge.net/DTD/sodipodi-0.dtd"
   xmlns="http://www.w3.org/2000/svg"
   xmlns:svg="http://www.w3.org/2000/svg">
  <defs
     id="defs1" />
  <sodipodi:namedview
     id="namedview1"
     pagecolor="#ffffff"
     bordercolor="#666666"
     borderopacity="1.0"
     inkscape:showpageshadow="2"
     inkscape:pageopacity="0.0"
     inkscape:pagecheckerboard="0"
     inkscape:deskcolor="#d1d1d1"
     inkscape:zoom="1.558"
     inkscape:cx="174.90372"
     inkscape:cy="61.938383"
     inkscape:window-width="1920"
     inkscape:window-height="1017"
     inkscape:window-x="-8"
     inkscape:window-y="-8"
     inkscape:window-maximized="1"
     inkscape:current-layer="root" />
  <g
     id="root"
     stroke="none"
     stroke-width="1"
     fill="none"
     fill-rule="evenodd"
     transform="translate(-82,-189)">
    <g
       id="Group"
       transform="translate(81.765025,246.03652)"
       style="fill:#03dd84;fill-opacity:1">
      <text
         id="headerText.primary"
         font-family="'Abril Fatface'"
         font-size="50px"
         font-weight="400"
         line-spacing="50"
         letter-spacing="3"
         fill="#03414d"
         data-text-alignment="L"
         font-style="normal"
         x="66.752251"
         y="-62.85815"
         style="font-size:37.3333px;fill:#03dd84;fill-opacity:1"
         inkscape:export-filename="NewLogoGreen.svg"
         inkscape:export-xdpi="347.03"
         inkscape:export-ydpi="347.03"><tspan
           x="66.752251"
           y="-17.85815"
           id="tspan1"
           style="font-style:normal;font-variant:normal;font-weight:normal;font-stretch:normal;font-size:37.3333px;font-family:'Rockwell Extra Bold';-inkscape-font-specification:'Rockwell Extra Bold, ';fill:#03dd84;fill-opacity:1">Techni Tribe</tspan></text>
    </g>
    <path
       d="m 105.06954,196.06033 c -1.28448,0 -2.33276,1.04827 -2.33276,2.33276 v 34.21381 c 0,1.28449 1.04828,2.33276 2.33276,2.33276 h 33.43623 c 0.3125,0 0.58685,-0.17019 0.70423,-0.46215 0.12177,-0.29123 0.0521,-0.62794 -0.16946,-0.85021 l -5.8319,-5.85611 c -0.23988,-0.23988 -0.61107,-0.28242 -0.89936,-0.14598 -0.009,0.004 -0.0147,-0.003 -0.0242,0 -0.50103,0.22227 -1.027,0.34038 -1.57938,0.34038 -2.14423,0 -3.88793,-1.7437 -3.88793,-3.88794 0,-2.14423 1.7437,-3.88793 3.88793,-3.88793 2.14423,0 3.88793,1.7437 3.88793,3.88793 0,0.55018 -0.11883,1.08422 -0.34037,1.57939 -0.0396,0.0851 -0.0425,0.17605 -0.0484,0.26775 -0.0242,0.26115 0.0851,0.49149 0.29123,0.65581 l 5.78348,5.8077 c 0.14892,0.14891 0.35579,0.2186 0.55899,0.2186 0.1005,0 0.19439,-0.009 0.29196,-0.0484 0.28829,-0.11883 0.48562,-0.41666 0.48562,-0.72917 v -33.43622 c 0,-1.28449 -1.0446,-2.33276 -2.33276,-2.33276 h -13.219 c -0.20687,0 -0.413,0.0968 -0.55898,0.2428 l -8.16466,8.16466 c -0.23107,0.19806 -0.30957,0.50471 -0.2186,0.8018 0.009,0.0308 0.0125,0.0455 0.0242,0.0734 0,0.003 0,0.0213 0,0.0242 0.23107,0.50396 0.34037,1.04167 0.34037,1.60359 0,2.14422 -1.7437,3.88793 -3.88793,3.88793 -2.14423,0 -3.88793,-1.7437 -3.88793,-3.88793 0,-2.14423 1.7437,-3.88794 3.88793,-3.88794 0.55238,0 1.08129,0.11517 1.57938,0.34037 0.006,0.003 0.0183,-0.003 0.0242,0 0.28609,0.12471 0.64114,0.088 0.87515,-0.14598 l 5.8561,-5.88031 c 0.22154,-0.22154 0.29123,-0.55899 0.17019,-0.85095 -0.12177,-0.29123 -0.39246,-0.48562 -0.70496,-0.48562 z m 25.63615,7.02249 c 2.14423,0 3.88793,1.7437 3.88793,3.88793 0,2.14423 -1.7437,3.88793 -3.88793,3.88793 -0.55018,0 -1.09669,-0.10929 -1.60359,-0.34038 -0.29489,-0.13351 -0.64407,-0.0814 -0.87515,0.14672 l -10.93462,10.93389 c -0.22741,0.22741 -0.2795,0.58026 -0.14599,0.87516 0.23108,0.50689 0.34038,1.05414 0.34038,1.60358 0,2.14424 -1.7437,3.88794 -3.88793,3.88794 -2.14423,0 -3.88793,-1.7437 -3.88793,-3.88794 0,-2.14423 1.7437,-3.88793 3.88793,-3.88793 0.55238,0 1.09669,0.11004 1.60359,0.34038 0.29489,0.13351 0.6228,0.0822 0.85094,-0.14598 l 10.95883,-10.95957 c 0.23108,-0.22741 0.27876,-0.55532 0.14599,-0.85021 -0.23108,-0.5069 -0.34038,-1.05048 -0.34038,-1.60359 0,-2.14423 1.7437,-3.88793 3.88793,-3.88793 z m -17.1069,2.33276 c -0.85975,0 -1.55517,0.69542 -1.55517,1.55517 0,0.85975 0.69542,1.55517 1.55517,1.55517 0.85975,0 1.55517,-0.69542 1.55517,-1.55517 0,-0.85975 -0.69542,-1.55517 -1.55517,-1.55517 z m 17.1069,0 c -0.85975,0 -1.55517,0.69542 -1.55517,1.55517 0,0.85975 0.69542,1.55517 1.55517,1.55517 0.85975,0 1.55517,-0.69542 1.55517,-1.55517 0,-0.85975 -0.69542,-1.55517 -1.55517,-1.55517 z m -17.1069,17.1069 c -0.85975,0 -1.55517,0.69543 -1.55517,1.55517 0,0.85975 0.69542,1.55518 1.55517,1.55518 0.85975,0 1.55517,-0.69543 1.55517,-1.55518 0,-0.85974 -0.69542,-1.55517 -1.55517,-1.55517 z m 17.1069,0 c -0.85975,0 -1.55517,0.69543 -1.55517,1.55517 0,0.85975 0.69542,1.55518 1.55517,1.55518 0.85975,0 1.55517,-0.69543 1.55517,-1.55518 0,-0.85974 -0.69542,-1.55517 -1.55517,-1.55517 z"
       id="shape.primary"
       fill="#03414d"
       fill-rule="nonzero"
       style="fill:#029159;stroke-width:0.733572;fill-opacity:1" />
    <text
       xml:space="preserve"
       style="font-size:48px;line-height:1.25;font-family:'Calisto MT';-inkscape-font-specification:'Calisto MT';fill:#03dd84;fill-opacity:1;font-weight:normal;font-style:normal;font-stretch:normal;font-variant:normal"
       x="172.50064"
       y="147.92169"
       id="text2"><tspan
         sodipodi:role="line"
         id="tspan2"
         x="172.50064"
         y="147.92169">Techni Tribe</tspan></text>
  </g>
</svg>
