<?xml version="1.0" encoding="UTF-8" standalone="no"?>
<!-- Created with Inkscape (http://www.inkscape.org/) -->

<svg
   width="132.29166mm"
   height="121.1484mm"
   viewBox="0 0 132.29165 121.1484"
   version="1.1"
   id="svg1"
   xmlns="http://www.w3.org/2000/svg"
   xmlns:svg="http://www.w3.org/2000/svg">
  <defs
     id="defs1" />
  <g
     id="layer1"
     transform="translate(-3.361696,-47.079069)">
    <g
       id="g1068"
       transform="matrix(0.15103374,0,0,0.15103374,-367.28204,26.975874)">
      <g
         id="g963">
				<path
   style="fill:#e6e8ef"
   d="m 3247.596,136.967 v 134.278 c 0,2.125 -1.225,3.863 -2.737,3.863 h -107.477 c -1.512,0 -2.737,-1.738 -2.737,-3.863 V 136.967 c 0,-2.134 1.225,-3.863 2.737,-3.863 h 107.477 c 1.512,0 2.737,1.728 2.737,3.863 z"
   id="path953" />

				<g
   id="g959">
					<path
   style="fill:#fdfdfc"
   d="m 3162.038,236.125 h -7.686 c -1.105,0 -2,-0.895 -2,-2 v -3.252 c 0,-1.105 0.895,-2 2,-2 h 7.686 c 1.104,0 2,0.895 2,2 v 3.252 c 0,1.105 -0.896,2 -2,2 z"
   id="path954" />

					<path
   style="fill:#fdfdfc"
   d="m 3227.889,236.125 h -55.252 c -1.104,0 -2,-0.895 -2,-2 v -3.252 c 0,-1.105 0.896,-2 2,-2 h 55.252 c 1.104,0 2,0.895 2,2 v 3.252 c 0,1.105 -0.895,2 -2,2 z"
   id="path955" />

					<path
   style="fill:#fdfdfc"
   d="m 3162.038,248.326 h -7.686 c -1.105,0 -2,-0.895 -2,-2 v -3.252 c 0,-1.105 0.895,-2 2,-2 h 7.686 c 1.104,0 2,0.895 2,2 v 3.252 c 0,1.105 -0.896,2 -2,2 z"
   id="path956" />

					<path
   style="fill:#fdfdfc"
   d="m 3227.889,248.326 h -55.252 c -1.104,0 -2,-0.895 -2,-2 v -3.252 c 0,-1.105 0.896,-2 2,-2 h 55.252 c 1.104,0 2,0.895 2,2 v 3.252 c 0,1.105 -0.895,2 -2,2 z"
   id="path957" />

					<path
   style="fill:#fdfdfc"
   d="m 3162.038,260.527 h -7.686 c -1.105,0 -2,-0.895 -2,-2 v -3.252 c 0,-1.105 0.895,-2 2,-2 h 7.686 c 1.104,0 2,0.895 2,2 v 3.252 c 0,1.105 -0.896,2 -2,2 z"
   id="path958" />

					<path
   style="fill:#fdfdfc"
   d="m 3227.889,260.527 h -55.252 c -1.104,0 -2,-0.895 -2,-2 v -3.252 c 0,-1.105 0.896,-2 2,-2 h 55.252 c 1.104,0 2,0.895 2,2 v 3.252 c 0,1.105 -0.895,2 -2,2 z"
   id="path959" />

				</g>

				<g
   id="g962">
					<rect
   x="3152.3521"
   y="189.884"
   style="fill:#fdfdfc"
   width="12.811"
   height="18.473"
   id="rect959" />

					<rect
   x="3172.3989"
   y="179.621"
   style="fill:#fdfdfc"
   width="12.811"
   height="28.735001"
   id="rect960" />

					<rect
   x="3193.355"
   y="166.964"
   style="fill:#fdfdfc"
   width="12.811"
   height="41.393002"
   id="rect961" />

					<rect
   x="3215.4819"
   y="151.912"
   style="fill:#fdfdfc"
   width="12.811"
   height="56.444"
   id="rect962" />

				</g>

			</g>
      <polygon
         style="fill:#e6e8ef"
         points="3326.912,918.552 2454.046,921.851 2546.393,895.524 3210.677,895.524 "
         id="polygon978" />
      <g
         id="g1014">
				<path
   style="fill:#f79e86"
   d="m 2665.33,913.307 c -4.481,4.629 -11.204,5.605 -11.204,5.605 0,0 -40.51,-26.025 -46.979,-31.318 -6.469,-5.293 -22.049,-22.419 -17.861,-30.73 3.552,-7.046 11.804,-5.987 15.309,-7.952 0.629,-0.353 1.106,-0.8 1.376,-1.411 1.764,-4.017 13.039,-23.637 13.039,-23.637 l 18.132,17.267 c 0,0 -12.656,14.715 -9.563,21.179 1.323,2.758 5.652,8.704 10.88,14.827 7.005,8.21 15.621,16.75 20.749,18.385 8.945,2.858 10.609,13.162 6.122,17.785 z"
   id="path978" />

				<path
   style="fill:#323086"
   d="m 2665.33,913.307 c -4.481,4.629 -11.204,5.605 -11.204,5.605 0,0 -40.51,-26.025 -46.979,-31.318 -6.469,-5.293 -22.049,-22.419 -17.861,-30.73 3.552,-7.046 11.804,-5.987 15.309,-7.952 0.388,7.781 1.829,15.338 5.493,19.273 9.439,10.133 15.562,7.093 28.371,8.951 7.005,8.21 15.621,16.75 20.749,18.385 8.945,2.859 10.609,13.163 6.122,17.786 z"
   id="path979" />

				<path
   style="fill:#221f53"
   d="m 2737.556,730.471 c 0,0 -96.298,113.602 -100.415,110.661 -4.117,-2.941 -22.349,-16.467 -19.996,-24.701 2.353,-8.234 53.52,-99.393 53.52,-99.393 0,0 13.527,-67.046 49.403,-71.163 35.875,-4.118 34.078,65.166 17.488,84.596 z"
   id="path980" />

				<g
   id="g984">
					<path
   style="fill:#9a9cce"
   d="m 2665.076,872.316 c -6.5,-7.141 -32.156,-5.356 -45.84,-13.568 -13.684,-8.212 -9.236,-62.125 -9.236,-62.125 h -6.842 -6.842 c 0,0 4.447,53.914 -9.236,62.125 -13.684,8.212 -39.34,6.427 -45.84,13.568 -6.5,7.141 -3.079,26.064 -3.079,26.064 h 5.131 c 0,0 -0.342,-18.923 8.552,-19.28 8.894,-0.357 51.313,-1.071 51.313,-1.071 0,0 42.419,0.714 51.313,1.071 8.894,0.357 8.552,19.28 8.552,19.28 h 5.131 c 0,0 3.422,-18.923 -3.077,-26.064 z"
   id="path981" />

					<ellipse
   style="fill:#5d53a3"
   cx="2541.4971"
   cy="907.21698"
   rx="11.203"
   ry="11.693"
   id="ellipse981" />

					<ellipse
   style="fill:#5d53a3"
   cx="2665.332"
   cy="907.21698"
   rx="11.203"
   ry="11.693"
   id="ellipse982" />

					<path
   style="fill:#5d53a3"
   d="m 2621.656,725.179 h -38.593 c -7.732,0 -14,-6.268 -14,-14 v -7.423 h 66.593 v 7.423 c 0,7.732 -6.268,14 -14,14 z"
   id="path982" />

					<path
   style="fill:#9a9cce"
   d="m 2619.009,725.177 c 0,0 -3.429,23.625 -5.599,47.732 h -20.731 c -2.17,-24.107 -5.599,-47.732 -5.599,-47.732 z"
   id="path983" />

					<path
   style="fill:#5d53a3"
   d="m 2614.009,800.952 h -21.702 c -2.761,0 -5,-2.239 -5,-5 V 774.25 c 0,-2.762 2.239,-5 5,-5 h 21.702 c 2.761,0 5,2.238 5,5 v 21.702 c 0,2.761 -2.238,5 -5,5 z"
   id="path984" />

				</g>

				<path
   style="fill:#9f3448"
   d="m 2718.174,472.862 c 0,0 39.468,67.737 45.97,74.206 6.502,6.469 17.677,12.526 30.615,15.379 12.939,2.853 25.877,7.055 30.583,15.54 4.705,8.485 0.683,20.165 -3.187,21.089 -3.87,0.923 -58.469,-7.055 -90.865,-28.649 -32.395,-21.594 -30.946,9.873 -41.707,-30.268 -10.762,-40.141 28.591,-67.297 28.591,-67.297 z"
   id="path985" />

				<path
   style="fill:#481f54"
   d="m 2685.367,266.336 c 0,0 -19.778,3.529 -26.161,0 -6.383,-3.529 -38.925,2.353 -45.591,25.878 -6.666,23.525 -6.666,50.971 1.96,65.87 8.626,14.899 30.19,25.878 37.64,23.917 7.45,-1.96 19.604,-13.723 27.446,-26.662 7.842,-12.939 30.867,-44.834 30.867,-44.834 0,0 7.557,-29.662 -4.205,-39.856 -11.761,-10.195 -12.831,-5.503 -21.956,-4.313 z"
   id="path986" />

				<path
   style="fill:#c43f52"
   d="m 2711.417,338.921 c -0.2,-0.821 -0.286,-1.562 -0.172,-2.207 0.588,-3.333 4.817,-10.978 2.997,-19.016 -1.821,-8.038 -10.642,-20.585 -10.642,-20.585 0,0 -12.547,8.038 -18.232,9.606 -5.685,1.568 -12.743,3.529 -13.331,9.018 -0.588,5.489 -8.038,36.66 -8.43,32.347 -0.392,-4.313 -1.372,-13.919 -2.353,-10.782 -0.98,3.137 -3.529,2.745 -3.137,0.392 0,0 -9.998,-14.703 -16.271,-2.549 -6.273,12.154 3.333,17.056 5.489,19.408 2.156,2.352 3.982,11.763 1.599,14.507 -2.383,2.744 -6.5,5.293 -6.892,7.646 -0.392,2.353 -4.509,16.272 -4.509,16.272 l 38.62,13.135 5.685,-19.408 c 0,0 14.507,3.725 19.8,1.372 4.701,-2.089 9.712,-23.51 11.735,-32.807 0,-10e-4 4.341,-7.431 4.782,-9.195 0.376,-1.504 -5.113,-5.893 -6.738,-7.154 z"
   id="path987" />

				<path
   style="fill:#5d53a3"
   d="m 2607.802,436.264 c 0,0 -59.104,13.232 -76.747,74.982 -17.643,61.75 19.605,124.383 100.222,153.494 80.618,29.111 24.16,-136.376 8.282,-170.958 -15.878,-34.583 -31.757,-57.518 -31.757,-57.518 z"
   id="path988" />

				<path
   style="fill:#323086"
   d="m 2816.355,921.563 c -4.117,3.931 -31.465,-0.605 -39.405,0.829 -7.94,1.433 -21.467,-1.736 -30.289,-0.224 -8.822,1.512 -12.645,-4.839 -17.35,-12.399 -4.705,-7.56 3.529,-16.935 3.135,-25.101 -0.024,-0.478 -0.047,-1.016 -0.059,-1.603 -0.294,-9.448 0.059,-31.965 0.059,-31.965 l 24.213,8.77 c 0,0 -0.588,14.818 -0.588,18.447 0,2.123 2.017,5.183 4.34,7.657 1.641,1.754 3.435,3.206 4.776,3.835 3.235,1.512 15.585,8.468 22.349,8.77 6.764,0.302 24.995,-1.512 30.289,3.327 5.293,4.838 2.647,15.725 -1.47,19.657 z"
   id="path989" />

				<path
   style="fill:#f79e86"
   d="m 2760.412,885.974 c -1.735,1.954 -4.193,4.167 -11.474,4.44 -7.022,0.26 -12.545,-3.26 -16.55,-7.349 -0.294,-9.448 0.059,-31.965 0.059,-31.965 l 24.213,8.77 c 0,0 -0.588,14.818 -0.588,18.447 0,2.123 2.017,5.183 4.34,7.657 z"
   id="path990" />

				<path
   style="fill:#323086"
   d="m 2729.281,564.712 c 0,0 94.534,10.334 93.708,39.365 -0.825,29.03 -65.282,255.793 -65.282,255.793 0,0 -26.958,-3.024 -26.418,-10.282 0.54,-7.258 2.304,-94.458 7.598,-123.438 5.293,-28.979 5.881,-41.076 2.94,-42.286 -2.94,-1.21 -19.698,-0.989 -41.902,-3.518 -22.204,-2.53 -47.586,-11.004 -55.185,-22.492 -7.599,-11.489 43.764,-94.351 84.541,-93.142 z"
   id="path991" />

				<path
   style="fill:#bec0e1"
   d="m 2806.815,486.785 c 0,0 -2.646,21.467 3.823,46.756 6.469,25.289 25.652,39.405 25.652,39.405 l 85.504,-26.466 c 0,0 -14.703,-30.583 -19.408,-59.695 -4.705,-29.112 -4.117,-59.107 -4.117,-59.107 h -88.807 z"
   id="path992" />

				<path
   style="fill:#9a9cce"
   d="m 2598.98,419.503 c 0,0 -92.625,-7.939 -126.147,52.929 -33.521,60.868 -23.818,155.258 42.343,204.658 66.161,49.4 151.729,44.99 157.022,44.107 5.293,-0.882 30.875,-43.225 30.875,-43.225 0,0 -150.847,-37.05 -164.079,-114.679 -13.232,-77.629 51.709,-110.852 51.709,-110.852 0,0 3.444,-24.842 8.277,-32.938 z"
   id="path993" />

				<g
   id="g996">
					<path
   style="fill:#e6e8ef"
   d="m 2484.225,593.528 c -0.921,0 -1.827,-0.432 -2.399,-1.242 -0.253,-0.359 -6.237,-8.987 -9.235,-26.399 -0.275,-1.601 0.799,-3.121 2.399,-3.397 1.602,-0.271 3.122,0.798 3.397,2.399 2.75,15.973 8.195,23.935 8.25,24.013 0.925,1.33 0.604,3.162 -0.723,4.092 -0.516,0.36 -1.105,0.534 -1.689,0.534 z"
   id="path994" />

					<path
   style="fill:#e6e8ef"
   d="m 2473.936,552.947 c -1.576,0 -2.881,-1.249 -2.937,-2.837 -0.243,-6.897 0.059,-14.166 0.897,-21.602 0.999,-8.862 3.041,-17.497 6.071,-25.665 0.565,-1.523 2.257,-2.299 3.78,-1.735 1.523,0.565 2.299,2.257 1.734,3.78 -2.864,7.722 -4.796,15.89 -5.741,24.278 -0.806,7.151 -1.096,14.128 -0.863,20.737 0.057,1.623 -1.212,2.985 -2.835,3.042 -0.036,10e-4 -0.071,0.002 -0.106,0.002 z"
   id="path995" />

					<path
   style="fill:#e6e8ef"
   d="m 2487.589,492.027 c -0.491,0 -0.989,-0.123 -1.447,-0.382 -1.413,-0.8 -1.91,-2.595 -1.11,-4.008 8.877,-15.674 18.709,-23.603 19.124,-23.933 1.27,-1.012 3.121,-0.802 4.133,0.469 1.01,1.27 0.802,3.117 -0.466,4.13 v 0 c -0.093,0.074 -9.396,7.618 -17.673,22.232 -0.54,0.955 -1.536,1.492 -2.561,1.492 z"
   id="path996" />

				</g>

				<path
   style="fill:#9a9cce"
   d="m 2620.673,404.741 c 0,0 -20.845,-1.863 -27.086,31.612 -6.241,33.475 -10.554,94.248 -0.36,130.319 10.194,36.072 21.021,64.547 31.759,76.064 10.738,11.517 20.11,15.566 20.11,15.566 0,0 -1.682,-4.587 2.239,-17.918 3.921,-13.331 18.036,-26.662 30.975,-36.464 12.939,-9.802 51.363,-34.111 50.971,-39.208 -0.392,-5.097 -12.155,-31.759 -14.899,-49.011 -2.744,-17.252 -2.745,-17.252 -2.745,-17.252 0,0 20.781,-31.564 19.604,-35.386 -1.176,-3.822 -34.896,-32.837 -38.424,-37.934 -3.529,-5.097 -15.683,-9.802 -21.565,-13.331 -5.881,-3.528 -34.963,-13.803 -50.579,-7.057 z"
   id="path997" />

				<path
   style="fill:#5d53a3"
   d="m 2623.81,463.064 c 0.056,-1.273 14.115,58.519 30.19,78.907 16.075,20.388 33.719,19.212 45.482,15.683 11.762,-3.529 23.364,-12.514 23.364,-12.514 l 6.434,19.571 c 0,0 -47.815,20.388 -59.587,9.018 -11.772,-11.37 -18.045,-28.622 -21.182,-31.367 -3.137,-2.745 -17.234,-15.428 -17.234,-15.428 0,0 6.255,-10.057 1.943,-21.036 -4.313,-10.977 -9.802,-33.915 -9.41,-42.834 z"
   id="path998" />

				<path
   style="fill:#323086"
   d="m 2634.788,523.543 c 0,0 59.205,-35.288 65.478,-29.014 6.273,6.273 10.194,10.623 6.273,14.133 -3.921,3.51 -52.539,36.053 -61.165,30.956 -8.625,-5.097 -19.926,-10.664 -10.586,-16.075 z"
   id="path999" />

				<path
   style="fill:#5d53a3"
   d="m 2698.6,493.782 c 0,0 -2.646,-16.504 -7.057,-27.777 -4.411,-11.272 0,-2.961 0,-2.961 l 11.531,34.353 z"
   id="path1000" />

				<polygon
   style="fill:#5d53a3"
   points="2698.306,445.91 2720.212,484.93 2711.854,499.814 "
   id="polygon1000" />

				<path
   style="fill:#9a9cce"
   d="m 2836.291,572.946 c 0,0 17.575,-4.117 11.694,-17.056 -5.881,-12.939 -5.881,-12.939 -5.881,-12.939 l 89.101,-14.703 c 0,0 4.999,12.645 0,22.349 -5,9.704 -94.914,22.349 -94.914,22.349 z"
   id="path1001" />

				<g
   style="opacity:0.58"
   id="g1006">
					<g
   id="g1002">
						<path
   style="fill:#323086"
   d="m 2827.105,464.808 c -0.774,0 -1.484,-0.513 -1.7,-1.295 -0.259,-0.939 0.292,-1.911 1.231,-2.171 0.143,-0.039 14.466,-3.96 30.334,-5.135 15.908,-1.179 23.061,-0.03 23.357,0.019 0.961,0.16 1.61,1.069 1.45,2.03 -0.16,0.961 -1.066,1.612 -2.03,1.45 -0.067,-0.011 -7.112,-1.122 -22.517,0.019 -15.51,1.149 -29.515,4.979 -29.655,5.018 -0.156,0.045 -0.315,0.065 -0.47,0.065 z"
   id="path1002" />

					</g>

					<g
   id="g1003">
						<path
   style="fill:#323086"
   d="m 2866.508,492.079 c -0.84,0 -1.584,-0.602 -1.736,-1.458 -0.169,-0.96 0.472,-1.875 1.431,-2.044 l 18.348,-3.235 c 0.961,-0.167 1.875,0.472 2.044,1.431 0.169,0.96 -0.472,1.875 -1.431,2.044 l -18.348,3.235 c -0.103,0.018 -0.206,0.027 -0.308,0.027 z"
   id="path1003" />

					</g>

					<g
   id="g1004">
						<path
   style="fill:#323086"
   d="m 2870.625,507.664 c -0.883,0 -1.645,-0.661 -1.75,-1.559 -0.114,-0.968 0.579,-1.844 1.546,-1.958 l 17.35,-2.039 c 0.969,-0.115 1.844,0.579 1.958,1.547 0.114,0.968 -0.579,1.844 -1.546,1.958 l -17.35,2.039 c -0.07,0.008 -0.139,0.012 -0.208,0.012 z"
   id="path1004" />

					</g>

					<g
   id="g1005">
						<path
   style="fill:#323086"
   d="m 2834.353,539.864 c -0.814,0 -1.546,-0.568 -1.724,-1.396 -0.204,-0.953 0.403,-1.891 1.356,-2.095 l 34.337,-7.352 c 0.953,-0.202 1.89,0.404 2.094,1.356 0.204,0.953 -0.403,1.891 -1.356,2.095 l -34.337,7.352 c -0.124,0.027 -0.248,0.04 -0.37,0.04 z"
   id="path1005" />

					</g>

				</g>

				<path
   style="fill:#9a9cce"
   d="m 2864.034,502.429 c 0,9.287 -6.158,17.126 -14.615,19.661 -1.87,0.565 -3.852,0.865 -5.905,0.865 -11.339,0 -20.526,-9.187 -20.526,-20.526 0,-10.157 7.381,-18.596 17.079,-20.226 0,0 0,0 0.01,-0.006 1.117,-0.188 2.27,-0.288 3.44,-0.288 11.335,0.001 20.521,9.187 20.521,20.52 z"
   id="path1006" />

				<g
   style="opacity:0.66"
   id="g1007">
					<path
   style="fill:#323086"
   d="m 2864.034,502.429 c 0,9.287 -6.158,17.126 -14.615,19.661 -2.664,-5.052 -4.599,-11.233 -5.987,-17.209 -2.688,-11.551 -3.341,-22.325 -3.364,-22.672 0.01,-0.006 0.01,-0.012 0.01,-0.012 1.117,-0.188 2.27,-0.288 3.44,-0.288 h 0.2 c 5.493,0.053 10.463,2.264 14.109,5.816 3.835,3.724 6.211,8.935 6.211,14.704 z"
   id="path1007" />

				</g>

				<g
   style="opacity:0.55"
   id="g1008">
					<path
   style="fill:#323086"
   d="m 2857.824,487.726 -14.391,17.156 c -2.688,-11.551 -3.341,-22.325 -3.364,-22.672 0.01,-0.006 0.01,-0.012 0.01,-0.012 l 3.64,-0.288 c 5.493,0.052 10.462,2.264 14.109,5.816 z"
   id="path1008" />

				</g>

				<path
   style="fill:#802235"
   d="m 2681.839,386.706 c 0,0 -11.826,-0.859 -15.095,-5.881 -3.269,-5.023 -4.313,-10.194 -4.313,-10.194 0,0 1.176,15.095 4.705,20.977 3.529,5.881 9.018,14.507 9.018,14.507 z"
   id="path1009" />

				<path
   style="fill:#323086"
   d="m 2622.356,404.099 c 0,0 5.382,-18.315 11.06,-17.393 5.678,0.922 50.579,9.302 49.991,17.393 -0.588,8.092 -2.156,15.371 -4.117,15.064 -1.96,-0.306 -34.864,-14.726 -56.934,-15.064 z"
   id="path1010" />

				<path
   style="fill:#481f54"
   d="m 2700.365,335.195 c 0,2.842 -1.448,5.146 -3.235,5.146 -1.786,0 -3.235,-2.304 -3.235,-5.146 0,-2.842 1.448,-5.146 3.235,-5.146 1.787,0 3.235,2.304 3.235,5.146 z"
   id="path1011" />

				<path
   style="fill:#481f54"
   d="m 2690.867,326.091 c 0.377,-3.451 4.658,-4.864 7.512,-5.548 1.104,-0.265 0.636,-1.966 -0.469,-1.701 -3.809,0.913 -8.328,2.856 -8.807,7.249 -0.124,1.127 1.641,1.118 1.764,0 z"
   id="path1012" />

				<path
   style="fill:#802235"
   d="m 2707.427,368.698 c -2.037,0 -4.692,-0.413 -6.715,-2.183 -3.454,-3.022 -4.041,-4.135 -4.123,-4.328 -0.128,-0.299 0.01,-0.644 0.309,-0.772 0.299,-0.129 0.644,0.01 0.772,0.309 0.013,0.025 0.538,1.037 3.817,3.906 3.263,2.855 8.704,1.621 8.758,1.608 0.316,-0.075 0.633,0.122 0.707,0.438 0.074,0.316 -0.122,0.633 -0.438,0.707 -0.112,0.027 -1.384,0.315 -3.087,0.315 z"
   id="path1013" />

				<path
   style="fill:#c43f52"
   d="m 2706.54,508.662 c 0,0 22.055,-12.761 30.289,-18.936 8.234,-6.175 27.642,-23.035 32.053,-23.721 4.411,-0.686 7.94,-2.451 10.292,-4.215 2.353,-1.764 20.878,-16.762 33.817,-13.821 12.939,2.941 15.879,0 18.82,4.705 2.941,4.705 9.116,17.44 -1.47,20.189 -10.586,2.748 -21.761,-1.663 -22.643,3.337 -0.882,4.999 -0.882,10.586 -0.882,10.586 0,0 -7.057,-6.083 -8.528,-8.041 -1.47,-1.957 -3.529,-2.84 -4.411,-2.84 -0.882,0 -5.293,3.823 -7.94,5.881 -2.646,2.058 -51.924,63.682 -82.863,74.627 -30.939,10.945 -39.697,-4.557 -50.903,-16.949 -10e-4,0 48.69,-24.248 54.369,-30.802 z"
   id="path1014" />

			</g>
      <path
         style="fill:#9a9cce"
         d="m 3265.655,241.628 -106.357,669.841 c -0.4,2.523 -1.835,4.635 -3.817,5.958 l -259.582,-21.631 c -5.04,-0.423 -8.693,-4.987 -8.004,-9.998 l 85.766,-621.821 c 0.565,-4.093 3.888,-7.24 8.005,-7.587 l 280.184,-23.478 c 2.728,1.835 4.369,5.146 3.805,8.716 z"
         id="path1015" />
      <path
         style="fill:#f7f9fd"
         d="m 3238.377,272.713 -80.738,505.307 -0.147,0.935 -17.079,106.904 c -0.288,1.817 -1.117,3.388 -2.3,4.558 -0.323,0.323 -0.67,0.612 -1.041,0.87 l -82.667,-8.216 -140.451,-13.962 c -3.676,-0.365 -6.475,-3.476 -6.834,-7.216 -0.065,-0.659 -0.053,-1.341 0.041,-2.029 l 3.288,-23.46 8.792,-62.688 0.024,-0.17 0.224,-1.612 67.458,-481.37 c 0.529,-3.746 3.417,-6.605 6.958,-6.887 l 6.664,-0.523 234.621,-18.467 c 2.323,1.704 3.705,4.756 3.187,8.026 z"
         id="path1016" />
      <path
         style="fill:#e6e8ef"
         d="m 3000.568,283.152 -71.663,493.774 -9.663,-3.211 0.024,-0.17 0.224,-1.612 67.458,-481.37 c 0.529,-3.746 3.417,-6.605 6.958,-6.887 z"
         id="path1017" />
      <path
         style="fill:#4b0082;fill-opacity:1"
         d="m 3288.721,241.628 -106.357,669.841 c -0.723,4.564 -4.84,7.793 -9.445,7.41 l -17.438,-1.453 c 1.982,-1.323 3.417,-3.435 3.817,-5.958 l 106.357,-669.841 c 0.564,-3.57 -1.076,-6.881 -3.805,-8.716 l 17.42,-1.458 c 5.705,-0.482 10.345,4.517 9.451,10.175 z"
         id="path1018" />
      <path
         style="fill:#323086"
         d="m 3076.868,261.424 -0.159,-2.347 c -0.066,-0.972 0.668,-1.814 1.641,-1.88 l 65.758,-4.466 c 0.972,-0.066 1.814,0.669 1.88,1.641 l 0.159,2.347 c 0.066,0.972 -0.668,1.814 -1.641,1.88 l -65.758,4.466 c -0.972,0.065 -1.814,-0.669 -1.88,-1.641 z"
         id="path1019" />
      <g
         id="g1022">
					<path
   style="fill:#e6e8ef"
   d="m 3157.639,778.02 -0.147,0.935 -17.079,106.904 c -0.288,1.817 -1.117,3.388 -2.3,4.558 l -83.708,-7.346 -140.451,-13.962 c -3.676,-0.365 -6.475,-3.476 -6.834,-7.216 0.01,-0.1 0.018,-0.2 0.029,-0.3 l 3.3,-25.19 8.24,-62.871 0.576,0.012 z"
   id="path1020" />

					<path
   style="fill:#b2386a"
   d="m 3070.062,820.485 18.782,-3.081 c 2.028,-0.333 3.763,1.464 3.36,3.479 l -4.579,22.899 c -0.383,1.912 -2.487,2.93 -4.223,2.041 l -15.931,-8.149 c -1.123,-0.574 -1.755,-1.801 -1.57,-3.049 l 1.729,-11.668 c 0.187,-1.266 1.17,-2.264 2.432,-2.472 z"
   id="path1021" />

					<path
   style="fill:#f15d6f"
   d="m 2996.163,808.545 -4.018,33.646 c -0.198,1.662 1.029,3.155 2.698,3.281 l 72.024,5.448 c 1.51,0.114 2.86,-0.937 3.119,-2.429 l 6.229,-35.832 c 0.304,-1.747 -0.997,-3.364 -2.768,-3.441 l -74.236,-3.262 c -1.536,-0.068 -2.866,1.061 -3.048,2.589 z"
   id="path1022" />

				</g>
      <polygon
         style="fill:#e6e8ef"
         points="3136.271,756.256 3204.75,336.489 3019.2,349.573 2958.558,740.599 "
         id="polygon1022" />
      <g
         id="g1044">
					<path
   style="fill:#f79e86"
   d="m 2953.161,386.109 c -0.784,-1.96 -11.37,-12.155 -14.899,-21.565 -3.529,-9.41 -12.547,-28.23 -19.212,-34.503 -6.666,-6.273 -5.489,-1.96 -4.313,2.745 1.176,4.705 10.586,23.525 7.058,26.27 -3.529,2.745 -11.625,1.961 -7.969,8.234 3.656,6.273 11.145,8.234 11.321,10.586 0.176,2.353 7.883,20.682 7.883,20.682 z"
   id="path1023" />

					<path
   style="fill:#323086"
   d="m 3119.799,779.764 -78.644,4.076 -15.232,0.788 -11.986,0.623 c 0,0 -0.224,-95.353 0,-114.879 0.223,-19.532 12.456,-52.349 12.456,-52.349 0,0 89.09,-19.402 96.247,1.77 7.157,21.172 -2.841,159.971 -2.841,159.971 z"
   id="path1024" />

					<polygon
   style="fill:#221f53"
   points="3049.224,702.19 3041.155,783.84 3025.922,784.628 "
   id="polygon1024" />

					<path
   style="fill:#e6e8ef"
   d="m 3038.205,632.338 c 0,0 28.894,31.097 51.812,36.133 22.918,5.036 62.521,-7.977 61.246,0 -1.275,7.977 -24.801,62.673 -28.917,68.554 -4.117,5.881 -55.872,0.575 -79.397,-16.474 -23.525,-17.049 -32.935,-18.226 -30.583,-26.459 2.353,-8.234 22.922,-64.756 25.839,-61.754 z"
   id="path1025" />

					<g
   id="g1031">
						<path
   style="fill:#9a9cce"
   d="m 3030.01,697.914 c -0.31,0 -0.61,-0.164 -0.772,-0.454 -0.237,-0.426 -0.083,-0.963 0.343,-1.2 0.021,-0.013 3.385,-2.122 7.807,-12.951 4.622,-11.321 11.75,-26.303 11.821,-26.453 0.21,-0.44 0.736,-0.625 1.176,-0.417 0.439,0.21 0.626,0.736 0.417,1.176 -0.071,0.149 -7.178,15.087 -11.781,26.361 -4.729,11.583 -8.428,13.741 -8.583,13.827 -0.136,0.076 -0.282,0.111 -0.428,0.111 z"
   id="path1026" />

						<path
   style="fill:#9a9cce"
   d="m 3044.125,701.443 c -0.108,0 -0.217,-0.019 -0.323,-0.061 -0.453,-0.179 -0.676,-0.691 -0.498,-1.144 l 10.194,-25.878 c 0.178,-0.454 0.692,-0.676 1.144,-0.497 0.453,0.179 0.676,0.691 0.497,1.144 l -10.194,25.878 c -0.136,0.346 -0.469,0.558 -0.82,0.558 z"
   id="path1027" />

						<path
   style="fill:#9a9cce"
   d="m 3079.804,719.479 c -0.116,0 -0.235,-0.023 -0.348,-0.072 -0.448,-0.192 -0.654,-0.712 -0.462,-1.159 l 14.115,-32.818 c 0.192,-0.447 0.71,-0.655 1.159,-0.462 0.448,0.192 0.654,0.712 0.462,1.159 l -14.115,32.818 c -0.144,0.334 -0.469,0.534 -0.811,0.534 z"
   id="path1028" />

						<path
   style="fill:#9a9cce"
   d="m 3093.92,712.813 c -0.102,0 -0.205,-0.017 -0.306,-0.055 -0.457,-0.169 -0.691,-0.676 -0.522,-1.133 0.023,-0.064 2.385,-6.454 4.908,-12.845 5.232,-13.252 6.027,-13.591 6.552,-13.814 0.451,-0.193 0.967,0.018 1.157,0.466 0.175,0.41 0.015,0.878 -0.356,1.102 -1.178,1.228 -6.326,14.11 -10.606,25.702 -0.131,0.357 -0.468,0.577 -0.827,0.577 z"
   id="path1029" />

						<path
   style="fill:#9a9cce"
   d="m 3109.994,725.752 c -0.114,0 -0.231,-0.022 -0.343,-0.07 -0.449,-0.19 -0.659,-0.707 -0.469,-1.156 l 11.762,-27.838 c 0.189,-0.449 0.708,-0.658 1.156,-0.469 0.448,0.19 0.659,0.707 0.469,1.156 l -11.763,27.838 c -0.141,0.337 -0.468,0.539 -0.812,0.539 z"
   id="path1030" />

						<path
   style="fill:#9a9cce"
   d="m 3056.398,707.717 c -0.106,0 -0.214,-0.019 -0.319,-0.06 -0.454,-0.176 -0.679,-0.688 -0.503,-1.142 l 6.546,-16.86 c 0.176,-0.454 0.686,-0.68 1.142,-0.503 0.454,0.176 0.679,0.688 0.503,1.142 l -6.546,16.86 c -0.136,0.349 -0.469,0.563 -0.823,0.563 z"
   id="path1031" />

					</g>

					<path
   style="fill:#481f54"
   d="m 3072.671,311.809 c 0,0 39.97,-5.293 52.321,20.29 12.351,25.584 2.647,41.239 11.469,47.085 8.822,5.846 29.7,7.023 24.701,27.313 -4.999,20.29 -8.234,24.701 -2.059,30.877 6.175,6.175 10.642,35.876 2.821,46.756 -7.82,10.88 -26.934,25.289 -38.697,13.527 -11.762,-11.762 -33.229,-48.226 -36.17,-68.223 -2.941,-19.996 -15.879,-19.114 -26.466,-25.878 -10.586,-6.763 -17.596,-17.69 -17.596,-17.69 0,0 -11.222,-30.242 -1.224,-47.298 10,-17.055 18.558,-26.387 30.9,-26.759 z"
   id="path1032" />

					<path
   style="fill:#f79e86"
   d="m 3049.026,343.568 c 0,0 -9.214,13.919 -8.43,23.721 0.784,9.802 3.725,20.192 1.96,25.486 -1.764,5.293 5.489,30.779 9.214,34.307 3.725,3.529 25.877,-3.137 25.877,-3.137 0,0 2.202,16.664 -4.977,20.977 -7.178,4.313 -4.042,35.68 6.349,37.444 10.39,1.764 14.507,11.174 24.505,-2.353 9.998,-13.527 13.924,-38.742 13.924,-38.742 0,0 -5.69,-7.916 -6.671,-17.326 -0.98,-9.41 -2.156,-23.525 1.96,-26.466 4.117,-2.941 7.058,-14.507 -0.392,-19.996 -7.449,-5.489 -12.351,2.156 -16.664,3.921 -4.313,1.764 -18.579,-2.549 -23.012,-6.862 -4.433,-4.313 -8.354,-10.194 -8.354,-10.194 0,0 9.41,15.557 7.449,14.836 -1.958,-0.72 -21.17,-9.542 -22.738,-35.616 z"
   id="path1033" />

					<path
   style="fill:#c43f52"
   d="m 3077.648,423.945 17.644,-6.273 c 0,0 -13.233,23.525 -14.409,19.702 -1.177,-3.823 -3.235,-13.429 -3.235,-13.429 z"
   id="path1034" />

					<path
   style="fill:#481f54"
   d="m 3098.334,380.417 -0.057,-1.175 -19.775,0.969 c -1.179,-6.428 -5.464,-11.207 -10.557,-11.207 -5.176,0 -9.516,4.935 -10.611,11.52 -0.783,-0.668 -1.675,-0.828 -2.732,-1.01 -0.334,-0.058 -0.695,-0.12 -1.09,-0.205 -1.425,-0.305 -2.593,0.453 -3.334,1.155 -0.828,-6.229 -3.948,-10.737 -7.781,-10.737 -4.485,0 -7.998,6.173 -7.998,14.054 0,7.881 3.513,14.054 7.998,14.054 4.486,0 7.999,-6.173 7.999,-14.054 0,-0.583 -0.022,-1.155 -0.059,-1.717 0.211,-0.301 1.431,-1.93 2.928,-1.604 0.412,0.088 0.788,0.153 1.136,0.213 1.364,0.236 2.055,0.358 2.737,1.413 -0.047,0.556 -0.074,1.121 -0.074,1.694 0,8.148 4.881,14.777 10.88,14.777 6,0 10.88,-6.629 10.88,-14.777 0,-0.818 -0.051,-1.619 -0.146,-2.401 z m -55.938,16.242 c -3.762,0 -6.822,-5.777 -6.822,-12.877 0,-7.101 3.06,-12.877 6.822,-12.877 3.762,0 6.823,5.777 6.823,12.877 0,7.1 -3.061,12.877 -6.823,12.877 z m 25.548,0.723 c -5.351,0 -9.704,-6.101 -9.704,-13.6 0,-7.499 4.354,-13.6 9.704,-13.6 5.35,0 9.704,6.101 9.704,13.6 0,7.498 -4.354,13.6 -9.704,13.6 z"
   id="path1035" />

					<path
   style="fill:#c43f52"
   d="m 3051.917,402.822 c -0.145,0 -0.29,-0.053 -0.403,-0.16 -0.105,-0.099 -2.588,-2.449 -3.652,-4.576 -0.852,-1.703 0.611,-2.51 2.025,-3.29 1,-0.551 2.133,-1.176 3.062,-2.217 1.716,-1.921 -0.631,-6.78 -1.68,-8.49 -0.17,-0.277 -0.083,-0.639 0.194,-0.809 0.277,-0.17 0.639,-0.084 0.809,0.194 0.173,0.281 4.199,6.928 1.555,9.889 -1.063,1.19 -2.343,1.896 -3.371,2.463 -1.623,0.895 -1.839,1.138 -1.541,1.734 0.971,1.942 3.382,4.223 3.406,4.246 0.237,0.223 0.248,0.595 0.025,0.831 -0.116,0.123 -0.272,0.185 -0.429,0.185 z"
   id="path1036" />

					<path
   style="fill:#c43f52"
   d="m 3062.186,413.214 c -1.382,1.253 -3.07,2.247 -4.729,2.164 -0.823,-0.041 -1.605,-0.235 -2.335,-0.529 -3.023,-1.194 -5.123,-3.987 -5.123,-3.987 -0.064,-0.318 0.288,-0.594 0.929,-0.835 2.623,-0.988 10.033,-1.394 13.027,-1.411 0.659,-0.006 1.106,0.012 1.235,0.041 0.531,0.128 -0.875,2.646 -3.004,4.557 z"
   id="path1037" />

					<path
   style="fill:#ffffff"
   d="m 3063.974,409.438 c -0.147,0.488 -11.716,1.664 -12.251,1.617 -0.241,-0.024 -0.529,-0.5 -0.794,-1.029 2.623,-0.988 10.033,-1.394 13.027,-1.411 0.042,0.382 0.059,0.694 0.018,0.823 z"
   id="path1038" />

					<g
   style="opacity:0.5"
   id="g1039">
						<path
   style="fill:#f79e86"
   d="m 3062.186,413.214 c -1.382,1.253 -3.07,2.247 -4.729,2.164 -0.823,-0.041 -1.605,-0.235 -2.335,-0.529 1.029,-1.223 2.77,-2.029 4.746,-2.029 0.824,0 1.612,0.141 2.318,0.394 z"
   id="path1039" />

					</g>

					<path
   style="fill:#f15d6f"
   d="m 3151.164,566.074 c -0.394,14.903 -26.271,35.682 -26.271,35.682 0,0 0.394,13.721 0,18.82 -0.388,5.099 -18.032,13.721 -18.032,13.721 0,0 -7.451,17.644 -10.98,21.567 -3.529,3.923 -23.525,-1.57 -25.484,-3.923 -1.964,-2.353 0,-19.602 0,-19.602 0,0 -34.111,-2.353 -41.169,-9.41 -7.058,-7.057 -2.747,-23.919 2.741,-37.64 5.493,-13.721 2.353,-35.682 -1.958,-47.832 -4.311,-12.157 0.394,-27.448 0.394,-27.448 0,0 0,0 -0.01,0.006 -0.282,0.088 -8.692,2.9 -17.632,3.27 -5.487,0.224 -11.168,-0.471 -15.297,-3.276 -10.98,-7.452 -66.264,-96.847 -70.187,-102.728 -3.917,-5.881 -1.958,-10.586 1.964,-14.897 3.917,-4.311 26.266,-16.074 30.583,-12.545 4.311,3.529 21.172,32.147 25.09,41.169 3.923,9.016 27.842,42.345 32.547,44.698 4.705,2.352 48.615,-18.432 48.615,-18.432 0,0 6.593,-2.323 6.593,-2.353 0,0.118 3.646,5.952 7.522,12.551 3.923,6.664 9.804,-2.352 17.644,-7.451 7.846,-5.099 18.432,-10.586 23.525,-8.234 5.099,2.353 12.551,13.333 21.173,29.012 8.625,15.684 9.019,80.378 8.625,95.275 z"
   id="path1040" />

					<path
   style="fill:#b2386a"
   d="m 3057.458,465.316 c -0.218,0.241 -5.052,5.64 -15.685,20.579 -10.88,15.291 -11.368,24.113 -11.368,24.113 0,0 0,0 -0.01,0.006 -0.282,0.088 -8.692,2.9 -17.632,3.27 14.555,-24.09 44.197,-47.58 44.691,-47.968 z"
   id="path1041" />

					<path
   style="fill:#b2386a"
   d="m 3111.171,478.347 c 0,0 7.352,74.3 4.117,81.652 -3.235,7.352 -44.892,72.34 -44.892,72.34 l -13.998,-1.485 c 0,0 22.132,-22.334 36.835,-43.213 14.703,-20.878 18.82,-36.464 18.526,-52.049 -0.294,-15.586 -0.588,-57.245 -0.588,-57.245 z"
   id="path1042" />

					<polygon
   style="fill:#b2386a"
   points="3124.892,601.756 3106.86,634.297 3116.111,629.107 "
   id="polygon1042" />

					<path
   style="fill:#f79e86"
   d="m 3072.671,653.299 c 0,0 -8.354,8.642 -7.178,19.62 1.176,10.978 1.613,11.762 7.178,9.998 5.565,-1.764 10.074,-18.624 11.838,-17.644 1.764,0.98 -0.823,6.395 1.745,3.198 2.568,-3.198 3.94,-9.667 3.744,-12.216 -0.196,-2.548 -17.327,-2.956 -17.327,-2.956 z"
   id="path1043" />

					<path
   style="fill:#481f54"
   d="m 3067.062,382.936 c 0,2.071 -0.949,3.749 -2.12,3.749 -1.171,0 -2.12,-1.679 -2.12,-3.749 0,-2.071 0.949,-3.749 2.12,-3.749 1.171,0 2.12,1.678 2.12,3.749 z"
   id="path1044" />

					<ellipse
   style="fill:#481f54"
   cx="3045.6799"
   cy="383.78101"
   rx="2.1199999"
   ry="3.7490001"
   id="ellipse1044" />

				</g>
      <path
         style="fill:#010101"
         d="m 2895.729,334.314 h -0.5 v -37.912 l 25.109,1.772 -0.014,0.479 c -0.595,19.996 -11.398,35.661 -24.595,35.661 z m 0.5,-36.839 v 35.831 c 12.321,-0.392 22.356,-15.236 23.08,-34.203 z"
         id="path1045" />
      <g
         id="g1050">
				<g
   style="opacity:0.35"
   id="g1046">
					<path
   style="fill:#9a9cce"
   d="m 2863.493,233.773 -20.221,111.703 c -0.338,1.869 0.646,3.727 2.382,4.497 l 73.219,32.48 27.133,-149.889 -78.348,-2.173 c -2.033,-0.056 -3.803,1.381 -4.165,3.382 z"
   id="path1046" />

				</g>

				<g
   style="opacity:0.74"
   id="g1047">
					
						<rect
   x="2859.8159"
   y="304.55301"
   transform="matrix(0.1781,-0.984,0.984,0.1781,2109.7739,3142.2825)"
   style="fill:#9a9cce"
   width="152.325"
   height="7.1929998"
   id="rect1046" />

				</g>

				
					<ellipse
   transform="matrix(0.1781,-0.984,0.984,0.1781,2088.3401,3094.1665)"
   style="fill:#9a9cce"
   cx="2896.448"
   cy="296.92899"
   rx="36.875"
   ry="24.118999"
   id="ellipse1047" />

				<g
   style="opacity:0.27"
   id="g1048">
					<path
   style="fill:#323086"
   d="m 2915.904,270.405 -19.457,26.524 6.568,-36.286 c 5.319,0.963 9.742,4.531 12.889,9.762 z"
   id="path1047" />

				</g>

				<g
   style="opacity:0.58"
   id="g1049">
					<path
   style="fill:#323086"
   d="m 2920.181,301.225 c -0.102,0.561 -0.208,1.116 -0.326,1.668 l -23.407,-5.965 19.457,-26.524 c 4.594,7.671 6.431,18.917 4.276,30.821 z"
   id="path1048" />

				</g>

			</g>
      <path
         style="fill:#9a9cce"
         d="m 3324.954,935.232 h -865.908 c -2.761,0 -5,-2.239 -5,-5 v -6.322 c 0,-2.761 2.239,-5 5,-5 h 865.908 c 2.761,0 5,2.239 5,5 v 6.322 c 0,2.761 -2.238,5 -5,5 z"
         id="path1050" />
      <path
         style="fill:#4faa7b"
         d="m 3248.193,807.626 c 0,0 -2.691,-27.798 -17.321,-23.863 -14.63,3.935 -23.605,20.717 -18.364,40.737 5.241,20.019 35.685,13.192 35.685,13.192 z"
         id="path1051" />
      <path
         style="fill:#b4d77c"
         d="m 3249.64,711.508 c -9.49,-28.955 -40.1,-18.822 -47.572,4.112 -7.471,22.934 -0.677,38.362 27.238,41.257 27.915,2.893 20.334,-45.369 20.334,-45.369 z m -29.899,16.304 c -3.674,3.291 -11.816,-11.399 -5.501,-9.346 0,0 9.175,6.062 5.501,9.346 z m 14.963,-5.699 c 0,0 -7.759,-15.278 -2.737,-17.789 5.016,-2.511 10.948,23.18 2.737,17.789 z"
         id="path1052" />
      <path
         style="fill:#b4d77c"
         d="m 3307.639,772.914 c -13.396,-17.577 -46.265,24.494 -46.265,24.494 -16.961,27.942 7.971,36.755 29.79,22.838 21.818,-13.923 29.878,-29.762 16.475,-47.332 z m -12.028,2.107 c 9.366,-2.504 -5.487,23.037 -15.524,18.022 -10.037,-5.022 15.524,-18.022 15.524,-18.022 z m -4.933,37.179 c -3.975,7.294 -21.997,2.737 -14.697,-3.195 0,0 18.672,-4.106 14.697,3.195 z m 14.792,-8.443 c -2.88,7.861 -19,1.327 -13.752,-3.558 0,0 16.626,-4.297 13.752,3.558 z"
         id="path1053" />
      <path
         style="fill:#4faa7b"
         d="m 3242.224,722.516 c -12.835,16.79 0,35.297 0,35.297 10.619,4.447 10.865,-4.44 22.961,-2.217 12.09,2.224 28.387,-1.238 30.357,-27.155 1.978,-25.917 -40.483,-22.708 -53.318,-5.925 z m 9.975,12.411 c 0,0 0.746,-18.063 8.272,-15.326 7.526,2.737 -6.972,25.411 -8.272,15.326 z"
         id="path1054" />
      <path
         style="fill:#72c271"
         d="m 3269.673,733.689 c -11.104,17.03 -5.672,29.427 -5.672,29.427 32.335,1.779 41.469,-17.084 43.193,-31.404 1.731,-14.313 -26.41,-15.059 -37.521,1.977 z m 4.584,5.528 c 0,0 18.5,-18.357 21.285,-10.776 2.792,7.581 -20.949,15.566 -21.285,10.776 z"
         id="path1055" />
      <path
         style="fill:#b4d77c"
         d="m 3232.734,770.635 c -12.678,-16.099 -45.129,-19.061 -52.587,-6.951 -7.458,12.117 9.271,30.145 30.727,34.018 21.449,3.879 22.749,15.367 30.036,11.474 0.766,-0.404 4.502,-22.449 -8.176,-38.541 z m -39.081,-5.877 c 0.684,-4.557 16.797,2.744 10.099,6.685 0,0 -10.783,-2.121 -10.099,-6.685 z m 16.523,23.721 c -0.924,0.479 -28.613,0.458 -23.139,-9.804 5.473,-10.263 31.917,5.24 23.139,9.804 z m 9.565,-7.752 c 0,0 -8.45,-2.285 -8.032,-7.759 0.417,-5.473 13.211,5.364 8.032,7.759 z"
         id="path1056" />
      <path
         style="fill:#4faa7b"
         d="m 3233.391,739.361 c -21.969,-16.044 -39.498,-8.881 -38.26,12.589 1.231,21.477 41.222,25.924 49.248,12.589 0,0 10.981,-9.127 -10.988,-25.178 z m -25.144,-1.177 c 0,-3.982 9.941,-4.68 5.993,0 0,0 -5.993,3.982 -5.993,0 z m 2.757,25.048 c -5.268,-9.873 16.325,-15.148 18.302,-6.356 0,0 -13.041,16.229 -18.302,6.356 z"
         id="path1057" />
      <g
         id="g1063">
					<path
   style="fill:#2f7d6e"
   d="m 3249.184,847.729 c -0.987,0 -1.84,-0.74 -1.956,-1.743 -0.247,-2.087 -5.847,-51.309 8.192,-73.37 13.874,-21.799 27.126,-31.264 27.681,-31.658 0.899,-0.629 2.129,-0.405 2.75,0.478 0.629,0.891 0.417,2.121 -0.474,2.75 -0.131,0.092 -13.206,9.469 -26.625,30.551 -13.287,20.878 -7.664,70.289 -7.606,70.786 0.127,1.084 -0.644,2.063 -1.728,2.191 -0.08,0.011 -0.157,0.015 -0.234,0.015 z"
   id="path1058" />

					<path
   style="fill:#2f7d6e"
   d="m 3247.015,828.482 c -0.826,0 -1.517,-0.84 -1.57,-1.928 -0.061,-1.257 -1.459,-31.094 1.265,-52.166 2.773,-21.426 20.494,-47.25 21.246,-48.338 0.583,-0.844 1.579,-0.9 2.22,-0.149 0.645,0.763 0.694,2.065 0.114,2.904 -0.178,0.261 -17.862,26.029 -20.479,46.266 -2.663,20.598 -1.244,50.921 -1.228,51.226 0.055,1.133 -0.605,2.109 -1.471,2.181 -0.033,0.004 -0.067,0.004 -0.097,0.004 z"
   id="path1059" />

					<path
   style="fill:#2f7d6e"
   d="m 3250.223,763.596 c -0.636,0 -1.261,-0.309 -1.643,-0.879 -0.069,-0.104 -7.023,-10.553 -12.435,-20.384 -5.427,-9.874 -15.3,-27.639 -15.3,-27.639 l 3.456,-1.921 c 0,0 9.874,17.78 15.308,27.654 5.326,9.689 12.188,19.994 12.257,20.099 0.605,0.906 0.359,2.133 -0.548,2.738 -0.335,0.224 -0.717,0.332 -1.095,0.332 z"
   id="path1060" />

					<path
   style="fill:#2f7d6e"
   d="m 3204.691,751.69 c -0.768,0 -1.497,-0.451 -1.817,-1.199 -0.428,-1.003 0.039,-2.164 1.041,-2.592 0.933,-0.397 23.08,-9.635 40.857,0.085 0.957,0.524 1.307,1.724 0.783,2.68 -0.524,0.96 -1.732,1.307 -2.68,0.783 -16.122,-8.821 -37.204,-0.008 -37.408,0.085 -0.256,0.108 -0.518,0.158 -0.776,0.158 z"
   id="path1061" />

					<path
   style="fill:#2f7d6e"
   d="m 3247.26,817.287 c -0.798,0 -1.554,-0.49 -1.851,-1.284 -8.238,-22.012 -30.794,-28.915 -31.01,-28.95 -1.088,0 -1.89,-0.879 -1.89,-1.967 0,-1.091 0.964,-1.971 2.056,-1.971 1.767,0 25.907,8.431 34.547,31.507 0.382,1.018 -0.139,2.156 -1.161,2.542 -0.229,0.085 -0.46,0.123 -0.691,0.123 z"
   id="path1062" />

					<path
   style="fill:#2f7d6e"
   d="m 3247.97,828.51 c 0.716,0 1.395,-0.377 1.661,-0.988 7.391,-16.938 27.625,-22.251 27.818,-22.278 0.976,0 1.696,-0.677 1.696,-1.514 0,-0.84 -0.865,-1.517 -1.844,-1.517 -1.585,0 -23.241,6.488 -30.991,24.246 -0.342,0.784 0.125,1.659 1.042,1.956 0.203,0.065 0.41,0.095 0.618,0.095 z"
   id="path1063" />

				</g>
      <path
         style="fill:#4b0082;fill-opacity:1"
         d="m 3238.465,918.159 c -14.366,0 -26.669,-10.292 -29.206,-24.432 l -6.291,-35.055 c -1.514,-8.437 3.96,-16.373 11.293,-16.373 h 79.659 c 7.58,0 13.103,8.447 11.153,17.061 l -8.072,35.675 c -3.06,13.523 -15.076,23.125 -28.941,23.125 h -29.595 z"
         id="path1064" />
      <polygon
         style="opacity:0.477218;fill:#ff94a3"
         points="1280.987,145.689 1285.178,145.689 1285.178,143.331 1280.987,143.331 1280.987,139.139 1278.628,139.139 1278.628,143.331 1274.437,143.331 1274.437,145.689 1278.628,145.689 1278.628,149.88 1280.987,149.88 "
         id="polygon266"
         transform="matrix(1.4864573,0,0,1.4864573,1114.9681,174.59446)" />
      <g
         id="g268"
         transform="matrix(1.4864573,0,0,1.4864573,1058.5618,240.23083)"
         style="opacity:0.477218">
		<g
   id="g267">
			<path
   style="fill:#ff94a3"
   d="m 1246.864,98.937 c 0,3.765 -4.736,4.873 -4.736,6.34 v 0.581 h -4.736 v -1.385 c 0,-2.021 3.601,-3.185 3.601,-5.427 0,-1.025 -0.666,-1.938 -1.827,-1.938 -1.496,0 -1.801,1.163 -1.801,2.326 0,0.249 0,0.499 0.027,0.748 h -5.094 c -0.028,-0.361 -0.084,-0.693 -0.084,-1.053 0,-3.599 3.213,-5.842 7.56,-5.842 4.237,0 7.09,2.216 7.09,5.65 z m -4.32,13.733 h -5.482 v -5.122 h 5.482 z"
   id="path267-1" />

		</g>

	</g>
      <polygon
         style="opacity:0.354916;fill:#ff94a3"
         points="970.44,142.568 970.44,138.377 974.631,138.377 974.631,136.019 970.44,136.019 970.44,131.827 968.081,131.827 968.081,136.019 963.89,136.019 963.89,138.377 968.081,138.377 968.081,142.568 "
         id="polygon265"
         transform="matrix(1.9979419,0,0,1.9979419,621.0757,1.8242899)" />
      <polygon
         style="opacity:0.354916;fill:#ff94a3"
         points="1024.722,81.635 1024.722,77.443 1028.913,77.443 1028.913,75.085 1024.722,75.085 1024.722,70.894 1022.363,70.894 1022.363,75.085 1018.172,75.085 1018.172,77.443 1022.363,77.443 1022.363,81.635 "
         id="polygon267"
         transform="matrix(1.9979419,0,0,1.9979419,621.0757,1.8242899)" />
      <polygon
         style="opacity:0.354916;fill:#ff94a3"
         points="963.89,136.019 963.89,138.377 968.081,138.377 968.081,142.568 970.44,142.568 970.44,138.377 974.631,138.377 974.631,136.019 970.44,136.019 970.44,131.827 968.081,131.827 968.081,136.019 "
         id="polygon265-4"
         transform="matrix(1.9979419,0,0,1.9979419,774.91093,586.39823)" />
      <polygon
         style="opacity:0.354916;fill:#ff94a3"
         points="1018.172,75.085 1018.172,77.443 1022.363,77.443 1022.363,81.635 1024.722,81.635 1024.722,77.443 1028.913,77.443 1028.913,75.085 1024.722,75.085 1024.722,70.894 1022.363,70.894 1022.363,75.085 "
         id="polygon267-7"
         transform="matrix(1.9979419,0,0,1.9979419,774.91093,586.39823)" />
      <g
         id="g270"
         transform="matrix(1.9979419,0,0,1.9979419,621.0757,1.8242899)"
         style="opacity:0.354916">
		<path
   style="fill:#ff94a3"
   d="m 1068.78,108.658 h -3.735 v -3.506 h 3.735 z"
   id="path268-6" />

		<path
   style="fill:#ff94a3"
   d="m 1074.648,108.658 h -3.735 v -3.506 h 3.735 z"
   id="path269-1" />

		<path
   style="fill:#ff94a3"
   d="m 1080.517,108.658 h -3.735 v -3.506 h 3.735 z"
   id="path270-4" />

	</g>
    </g>
  </g>
</svg>
